<?xml version="1.0" standalone="no"?>
<!DOCTYPE svg PUBLIC "-//W3C//DTD SVG 20010904//EN"
 "http://www.w3.org/TR/2001/REC-SVG-20010904/DTD/svg10.dtd">
<svg version="1.0" xmlns="http://www.w3.org/2000/svg"
 width="900.000000pt" height="177.000000pt" viewBox="0 0 900.000000 177.000000"
 preserveAspectRatio="xMidYMid meet">
<metadata>
Created by potrace 1.10, written by Peter Selinger 2001-2011
</metadata>
<g transform="translate(0.000000,177.000000) scale(0.100000,-0.100000)"
fill="#3e7a00" stroke="none">
<path d="M770 1541 c-131 -17 -261 -83 -351 -178 -122 -129 -178 -275 -179
-468 0 -95 20 -226 40 -263 5 -9 17 -35 27 -57 71 -162 229 -287 416 -330 91
-21 264 -16 357 9 109 31 230 106 230 144 0 10 -14 58 -31 107 -16 50 -32 96
-35 103 -3 9 -19 0 -52 -29 -57 -51 -125 -83 -213 -99 -142 -28 -321 47 -369
154 -19 42 -18 55 12 99 60 85 280 102 419 32 29 -14 54 -23 58 -20 3 4 4 66
3 138 -3 128 -4 133 -29 153 -34 29 -130 47 -201 38 -147 -18 -257 -125 -284
-274 -10 -59 -22 -72 -46 -48 -19 19 -16 223 5 284 32 97 105 184 188 227 50
25 150 40 226 34 84 -7 177 -47 238 -102 28 -26 42 -33 45 -24 3 8 17 48 32
89 42 120 42 132 -3 167 -89 70 -206 109 -353 116 -52 3 -120 2 -150 -2z"/>
<path d="M1845 1540 c-215 -33 -380 -155 -466 -345 -50 -110 -62 -168 -63
-300 -1 -135 16 -220 65 -320 82 -167 219 -279 401 -326 71 -18 100 -21 203
-16 66 3 143 13 171 21 65 18 160 66 204 104 l34 29 -36 109 c-21 60 -41 110
-46 112 -4 1 -26 -13 -48 -31 -62 -52 -106 -74 -190 -93 -67 -15 -87 -15 -143
-4 -187 35 -301 155 -322 335 -34 307 142 506 428 481 91 -7 158 -36 227 -95
26 -23 50 -41 52 -39 1 2 14 37 27 78 14 41 31 90 38 107 13 31 12 34 -20 67
-94 97 -328 154 -516 126z"/>
<path d="M2890 1540 c-83 -10 -122 -21 -190 -53 -139 -66 -238 -193 -286 -367
-25 -88 -26 -378 -2 -460 64 -217 183 -347 374 -406 73 -23 304 -26 374 -6
167 49 294 158 354 302 10 25 22 54 27 65 17 41 39 194 39 270 0 242 -85 442
-234 555 -107 81 -284 120 -456 100z m168 -252 c146 -36 232 -183 232 -399 0
-147 -41 -270 -109 -332 -51 -46 -67 -54 -139 -71 -113 -26 -228 19 -290 114
-57 88 -67 131 -67 290 0 154 10 198 61 280 65 105 185 150 312 118z"/>
<path d="M5125 1540 c-237 -32 -435 -206 -521 -457 -69 -200 -68 -446 1 -704
37 -140 20 -129 205 -129 87 0 161 4 164 9 3 5 -16 51 -42 102 -49 98 -91 244
-75 260 5 5 83 8 179 7 l169 -3 -1 -160 c0 -88 -4 -172 -8 -187 l-8 -28 172 0
172 0 -8 28 c-4 15 -10 279 -13 587 -6 513 -8 563 -24 588 -43 65 -214 106
-362 87z m88 -297 c6 -34 -1 -354 -7 -360 -2 -2 -78 -4 -170 -5 -113 -1 -170
2 -178 10 -25 25 48 202 117 287 39 48 144 104 196 105 34 0 37 -2 42 -37z"/>
<path d="M7215 1541 c-129 -15 -262 -80 -352 -173 -53 -55 -123 -157 -123
-181 0 -7 -4 -17 -9 -22 -5 -6 -19 -46 -30 -89 -23 -89 -29 -270 -10 -341 5
-22 14 -53 18 -70 26 -100 120 -239 204 -303 131 -98 255 -136 427 -129 130 5
218 25 299 69 59 32 111 75 111 92 1 22 -65 216 -73 216 -5 0 -29 -17 -55 -39
-60 -50 -91 -64 -181 -86 -64 -15 -82 -16 -143 -5 -140 25 -258 111 -258 189
0 47 27 84 83 113 36 19 59 22 157 22 109 1 119 -1 184 -32 37 -17 72 -29 77
-26 10 6 12 226 3 260 -10 38 -93 68 -188 68 -74 0 -91 -4 -149 -32 -43 -21
-79 -48 -100 -75 -45 -55 -54 -74 -81 -165 -13 -43 -27 -76 -32 -75 -18 4 -26
71 -22 183 4 106 7 120 38 183 81 163 262 241 455 194 55 -13 151 -65 180 -97
10 -11 23 -20 29 -20 10 0 77 190 76 217 0 19 -100 90 -151 109 -117 42 -262
59 -384 45z"/>
<path d="M3502 1521 c-11 -7 -7 -22 21 -73 32 -59 97 -243 187 -528 18 -58 39
-123 46 -145 7 -22 17 -56 23 -75 43 -159 132 -435 143 -441 7 -5 61 -9 119
-9 124 0 109 -11 201 145 125 211 215 420 259 600 33 132 33 326 1 410 -13 34
-33 74 -46 90 l-24 30 -129 3 c-70 1 -134 -2 -142 -7 -11 -7 -10 -15 7 -47 37
-69 50 -109 63 -204 16 -124 -6 -301 -51 -405 -48 -110 -62 -135 -79 -144 -23
-13 -23 -13 -46 64 -9 33 -36 119 -60 190 -48 146 -93 300 -106 360 -11 54
-11 137 1 155 21 34 -6 40 -194 40 -99 0 -187 -4 -194 -9z"/>
<path d="M5612 1521 c-11 -7 -12 -19 -3 -62 17 -79 18 -1055 2 -1131 -7 -32
-10 -62 -6 -68 4 -6 69 -10 167 -10 l160 0 -7 38 c-4 20 -9 164 -12 320 l-4
282 23 -11 c15 -6 38 -39 62 -87 21 -42 49 -97 63 -122 14 -25 46 -85 72 -135
27 -49 70 -130 96 -180 26 -49 53 -93 59 -97 6 -4 78 -8 160 -8 l148 0 -8 68
c-5 37 -9 303 -9 592 0 418 3 533 14 564 11 32 11 40 0 47 -18 11 -300 11
-318 -1 -12 -7 -11 -18 2 -67 14 -48 17 -106 17 -304 0 -134 -4 -250 -8 -257
-13 -20 -43 21 -117 163 -37 72 -71 135 -75 140 -6 8 -63 116 -157 295 -7 13
-20 28 -30 32 -26 10 -275 9 -291 -1z"/>
<path d="M7811 1522 c-12 -8 -12 -18 -2 -54 13 -49 10 -1127 -4 -1186 l-7 -32
168 2 c144 3 169 5 167 18 -1 8 -7 35 -12 60 -13 58 -14 550 -1 570 11 18 23
7 38 -35 23 -65 62 -173 82 -225 12 -30 25 -68 30 -85 5 -16 18 -55 30 -85 33
-85 41 -111 48 -165 l7 -50 183 -3 c203 -3 205 -2 158 61 -35 48 -104 188
-126 257 -5 14 -18 50 -30 80 -13 30 -25 69 -27 85 -4 29 -1 33 52 59 157 76
237 252 191 421 -36 137 -132 236 -275 287 -50 17 -90 20 -356 24 -185 3 -305
1 -314 -4z m594 -263 c77 -46 98 -154 45 -227 -41 -57 -78 -70 -210 -73 -89
-3 -113 -1 -120 11 -11 17 -14 293 -3 303 3 4 62 7 129 7 107 0 127 -3 159
-21z"/>
</g>
</svg>
