<svg width="27" height="36" viewBox="0 0 27 36" fill="none" xmlns="http://www.w3.org/2000/svg">
<g clip-path="url(#clip0_28_253)">
<path d="M6.82877 25.4975C6.21775 24.8865 6.53627 25.0588 5.06252 24.6643C4.39385 24.485 3.80603 24.1405 3.27447 23.7277L0.0843918 31.5493C-0.22428 32.3066 0.352282 33.1292 1.16931 33.0983L4.87408 32.957L7.4222 35.6485C7.9847 36.242 8.97189 36.057 9.28056 35.2998L12.9403 26.3265C12.1781 26.7512 11.3323 27.0001 10.4576 27.0001C9.0865 27.0001 7.79838 26.4664 6.82877 25.4975ZM26.9156 31.5493L23.7256 23.7277C23.194 24.1412 22.6062 24.485 21.9375 24.6643C20.456 25.0609 20.7809 24.8879 20.1713 25.4975C19.2017 26.4664 17.9128 27.0001 16.5417 27.0001C15.667 27.0001 14.8212 26.7505 14.059 26.3265L17.7188 35.2998C18.0274 36.057 19.0153 36.242 19.5771 35.6485L22.126 32.957L25.8307 33.0983C26.6478 33.1292 27.2243 32.3059 26.9156 31.5493ZM18.4922 23.9063C19.5666 22.813 19.6896 22.9072 21.2196 22.4902C22.1963 22.2237 22.9599 21.4468 23.2214 20.4526C23.7474 18.4557 23.611 18.6969 25.046 17.2358C25.7611 16.508 26.0403 15.447 25.7787 14.4528C25.2535 12.4573 25.2528 12.7358 25.7787 10.7382C26.0403 9.74398 25.7611 8.68297 25.046 7.95524C23.611 6.49414 23.7474 6.73461 23.2214 4.73844C22.9599 3.74422 22.1963 2.96727 21.2196 2.70078C19.2593 2.1657 19.4956 2.30563 18.0591 0.843829C17.344 0.116094 16.3013 -0.168671 15.3246 0.097813C13.365 0.632188 13.6385 0.632891 11.6754 0.097813C10.6988 -0.168671 9.65603 0.115391 8.94095 0.843829C7.50588 2.30492 7.74213 2.1657 5.78111 2.70078C4.80447 2.96727 4.04088 3.74422 3.77931 4.73844C3.25408 6.73461 3.38978 6.49414 1.9547 7.95524C1.23963 8.68297 0.959782 9.74398 1.22205 10.7382C1.74728 12.7323 1.74799 12.4538 1.22205 14.4521C0.960486 15.4463 1.23963 16.5073 1.9547 17.2358C3.38978 18.6969 3.25338 18.4557 3.77931 20.4526C4.04088 21.4468 4.80447 22.2237 5.78111 22.4902C7.3547 22.9191 7.47213 22.8516 8.50783 23.9063C9.43806 24.8534 10.8872 25.0229 12.0052 24.3155C12.4522 24.0317 12.9708 23.881 13.5004 23.881C14.0299 23.881 14.5485 24.0317 14.9956 24.3155C16.1128 25.0229 17.562 24.8534 18.4922 23.9063ZM6.86674 12.3723C6.86674 8.64359 9.83673 5.62086 13.5 5.62086C17.1633 5.62086 20.1333 8.64359 20.1333 12.3723C20.1333 16.1009 17.1633 19.1237 13.5 19.1237C9.83673 19.1237 6.86674 16.1009 6.86674 12.3723Z" fill="#D3BE03"/>
</g>
<defs>
<clipPath id="clip0_28_253">
<rect width="27" height="36" fill="white"/>
</clipPath>
</defs>
</svg>
