<svg width="47" height="47" viewBox="0 0 47 47" fill="none" xmlns="http://www.w3.org/2000/svg">
<path d="M12.1907 9.42155C11.8213 9.06483 11.3266 8.86744 10.8132 8.8719C10.2997 8.87636 9.80854 9.08232 9.44545 9.44541C9.08236 9.8085 8.8764 10.2997 8.87194 10.8131C8.86748 11.3266 9.06486 11.8213 9.42159 12.1906L20.731 23.5L9.41963 34.8094C9.23259 34.99 9.0834 35.2061 8.98077 35.4451C8.87813 35.684 8.82411 35.941 8.82185 36.201C8.81959 36.461 8.86914 36.7189 8.96761 36.9595C9.06607 37.2002 9.21149 37.4189 9.39536 37.6027C9.57923 37.7866 9.79788 37.932 10.0386 38.0305C10.2792 38.129 10.5371 38.1785 10.7971 38.1763C11.0572 38.174 11.3141 38.12 11.5531 38.0173C11.792 37.9147 12.0081 37.7655 12.1887 37.5785L23.5 26.2691L34.8094 37.5785C35.1788 37.9352 35.6735 38.1326 36.1869 38.1281C36.7004 38.1237 37.1916 37.9177 37.5547 37.5546C37.9177 37.1915 38.1237 36.7003 38.1282 36.1869C38.1326 35.6734 37.9352 35.1787 37.5785 34.8094L26.2691 23.5L37.5785 12.1906C37.9352 11.8213 38.1326 11.3266 38.1282 10.8131C38.1237 10.2997 37.9177 9.8085 37.5547 9.44541C37.1916 9.08232 36.7004 8.87636 36.1869 8.8719C35.6735 8.86744 35.1788 9.06483 34.8094 9.42155L23.5 20.7309L12.1907 9.42155Z" fill="#3E7A00"/>
</svg>
