<svg width="34" height="34" viewBox="0 0 34 34" fill="none" xmlns="http://www.w3.org/2000/svg">
<path fill-rule="evenodd" clip-rule="evenodd" d="M15.7981 3.89813C16.1169 3.57943 16.5492 3.40039 17 3.40039C17.4508 3.40039 17.8831 3.57943 18.2019 3.89813L30.1019 15.7981C30.3396 16.0359 30.5015 16.3388 30.567 16.6685C30.6326 16.9982 30.5989 17.3399 30.4703 17.6505C30.3416 17.9611 30.1238 18.2266 29.8443 18.4134C29.5648 18.6002 29.2362 18.7 28.9 18.7H27.2V28.9C27.2 29.3509 27.0209 29.7833 26.7021 30.1021C26.3833 30.4209 25.9509 30.6 25.5 30.6H22.1C21.6492 30.6 21.2168 30.4209 20.8979 30.1021C20.5791 29.7833 20.4 29.3509 20.4 28.9V23.8C20.4 23.3492 20.2209 22.9168 19.9021 22.5979C19.5833 22.2791 19.1509 22.1 18.7 22.1H15.3C14.8492 22.1 14.4168 22.2791 14.0979 22.5979C13.7791 22.9168 13.6 23.3492 13.6 23.8V28.9C13.6 29.3509 13.4209 29.7833 13.1021 30.1021C12.7833 30.4209 12.3509 30.6 11.9 30.6H8.50003C8.04916 30.6 7.61676 30.4209 7.29795 30.1021C6.97914 29.7833 6.80003 29.3509 6.80003 28.9V18.7H5.10003C4.76385 18.7 4.43525 18.6002 4.15575 18.4134C3.87625 18.2266 3.65841 17.9611 3.52978 17.6505C3.40114 17.3399 3.36747 16.9982 3.43304 16.6685C3.4986 16.3388 3.66045 16.0359 3.89813 15.7981L15.7981 3.89813Z" fill="#3E7A00"/>
</svg>
