<svg width="74" height="74" viewBox="0 0 74 74" fill="none" xmlns="http://www.w3.org/2000/svg">
<g filter="url(#filter0_d_68_226)">
<rect x="7" y="5" width="60" height="60" rx="30" fill="#E59182"/>
<rect x="7" y="5" width="60" height="60" rx="30" stroke="white" stroke-width="5"/>
<g clip-path="url(#clip0_68_226)">
<path d="M32.3557 37.7803C29.3701 37.7803 26.3866 37.7803 23.401 37.7803C22.4453 37.7803 22.2718 37.5276 22.5772 36.6005C23.9261 32.5032 27.2984 29.9811 31.6198 29.7812C34.3879 29.6538 36.9364 30.2294 39.2036 31.8947C40.9436 33.1733 41.796 34.9901 42.4155 36.9674C42.5473 37.387 42.3935 37.6375 41.9849 37.7275C41.7652 37.7759 41.5345 37.7978 41.3105 37.8C38.327 37.8044 35.3414 37.8022 32.3579 37.8022C32.3579 37.7956 32.3579 37.789 32.3579 37.7803H32.3557Z" fill="white"/>
<path d="M43.3383 45.5684C43.2592 43.5253 43.1889 41.5568 43.101 39.5906C43.0768 39.0413 43.0944 38.5602 43.4042 38.0351C43.6261 37.6594 43.6107 37.0465 43.4964 36.5895C43.0285 34.7177 41.9959 33.1645 40.6053 31.8398C40.4361 31.6794 40.2845 31.5014 40.0187 31.2202H50.4827C50.4937 31.4355 50.5135 31.6552 50.5135 31.8749C50.5135 36.1458 50.5135 40.4144 50.5135 44.6853C50.5135 45.5662 50.4036 45.6234 49.4985 45.5948C48.2133 45.5531 46.9281 45.5728 45.6428 45.5684C44.9091 45.5662 44.1753 45.5684 43.3383 45.5684Z" fill="white"/>
<path d="M46.9324 26.6155C48.2505 26.6155 49.4874 26.644 50.7221 26.6045C51.3746 26.5825 51.5789 26.8527 51.5569 27.4547C51.5328 28.1204 51.5459 28.786 51.5503 29.4517C51.5547 29.924 51.3614 30.1745 50.8561 30.1745C47.1828 30.1679 43.5117 30.1679 39.8385 30.1745C39.3485 30.1745 39.1135 29.968 39.1179 29.4781C39.1223 28.7443 39.1223 28.0083 39.1179 27.2745C39.1157 26.778 39.3529 26.6001 39.8472 26.6067C41.5213 26.6264 43.1954 26.6155 44.9551 26.6155C45.1485 25.5763 45.3638 24.5547 45.5219 23.5266C45.612 22.9444 45.8734 22.5665 46.4293 22.3556C47.4992 21.9513 48.5581 21.5164 49.6236 21.1033C50.2498 20.8617 50.7485 21.0506 50.9879 21.5998C51.2208 22.1337 50.9769 22.795 50.4079 23.0366C49.5665 23.3925 48.6921 23.6737 47.8617 24.056C47.6068 24.1747 47.3586 24.4888 47.2751 24.7634C47.1059 25.328 47.051 25.9256 46.9302 26.6155H46.9324Z" fill="white"/>
<path d="M32.4854 45.7969C35.3809 45.7969 38.2765 45.7925 41.1721 45.8035C41.4599 45.8035 41.7872 45.8452 42.0201 45.9902C42.2222 46.1176 42.4045 46.4032 42.4419 46.6427C42.5342 47.2337 40.9282 48.9934 40.3262 48.9934C35.0646 48.9978 29.8029 49.0044 24.539 48.978C24.2468 48.978 23.9019 48.7539 23.68 48.5365C23.3219 48.1871 22.999 47.7807 22.7507 47.3479C22.5859 47.0623 22.419 46.6053 22.5398 46.3769C22.687 46.1 23.1264 45.9616 23.4581 45.8057C23.5899 45.7441 23.7745 45.7947 23.9349 45.7947C26.7843 45.7947 29.6337 45.7947 32.4832 45.7947L32.4854 45.7969Z" fill="white"/>
<path d="M32.6457 39.2698C35.3787 39.2698 38.1139 39.2698 40.8469 39.2698C41.8026 39.2698 42.2354 39.6674 42.2485 40.5484C42.2617 41.4711 41.6883 42.0796 40.7854 42.0774C35.3414 42.0709 29.8973 42.0577 24.4511 42.0599C23.8711 42.0599 23.3944 41.9346 23.1703 41.3525C22.933 40.7395 22.9155 40.1002 23.3988 39.6169C23.6207 39.395 24.0425 39.2851 24.3742 39.2807C27.1314 39.2544 29.8886 39.2654 32.6435 39.2676L32.6457 39.2698Z" fill="white"/>
<path d="M23.0692 44.9709C23.2208 43.8548 23.8447 43.2243 24.7938 42.9453C25.9999 42.5894 27.0589 42.886 27.9266 43.901C28.5374 43.1958 29.2909 42.7959 30.2049 42.8047C31.099 42.8135 31.8416 43.1892 32.4458 43.9251C33.0543 43.1936 33.8057 42.7915 34.7262 42.8047C35.6159 42.8179 36.3585 43.1914 36.9495 43.8966C37.8766 42.8618 38.9773 42.5477 40.2603 43.0156C41.1478 43.3386 41.6949 43.9581 41.8179 44.9687C41.1434 44.9841 40.5173 45.2521 40.0582 44.3975C39.7022 43.7318 38.5401 43.8505 38.2127 44.5535C38.004 45.0016 37.7338 45.0258 37.3559 45.0126C37.0571 45.0016 36.7583 44.9951 36.4596 45.0126C36.1103 45.0346 35.9037 44.9445 35.7126 44.5908C35.2732 43.778 34.1088 43.7582 33.6914 44.571C33.4871 44.9687 33.263 45.0302 32.9005 45.0104C32.6259 44.9951 32.3491 44.9951 32.0745 45.0104C31.668 45.0346 31.3956 44.9709 31.1649 44.5315C30.7761 43.7911 29.5897 43.7758 29.2206 44.5117C28.9746 44.9995 28.6692 45.0346 28.2408 45.0126C27.942 44.9973 27.6323 45.0588 27.3489 44.9929C27.1314 44.9423 26.8743 44.7973 26.7557 44.615C26.2855 43.89 25.1585 43.7077 24.8026 44.4304C24.4775 45.0895 24.0293 45.0016 23.524 45.006C23.39 45.006 23.256 44.9863 23.0714 44.9709H23.0692Z" fill="white"/>
</g>
</g>
<defs>
<filter id="filter0_d_68_226" x="0.5" y="0.5" width="73" height="73" filterUnits="userSpaceOnUse" color-interpolation-filters="sRGB">
<feFlood flood-opacity="0" result="BackgroundImageFix"/>
<feColorMatrix in="SourceAlpha" type="matrix" values="0 0 0 0 0 0 0 0 0 0 0 0 0 0 0 0 0 0 127 0" result="hardAlpha"/>
<feOffset dy="2"/>
<feGaussianBlur stdDeviation="2"/>
<feComposite in2="hardAlpha" operator="out"/>
<feColorMatrix type="matrix" values="0 0 0 0 0 0 0 0 0 0 0 0 0 0 0 0 0 0 0.25 0"/>
<feBlend mode="normal" in2="BackgroundImageFix" result="effect1_dropShadow_68_226"/>
<feBlend mode="normal" in="SourceGraphic" in2="effect1_dropShadow_68_226" result="shape"/>
</filter>
<clipPath id="clip0_68_226">
<rect width="29.1182" height="28" fill="white" transform="translate(22.4409 21)"/>
</clipPath>
</defs>
</svg>
