<svg width="301" height="274" viewBox="0 0 301 274" fill="none" xmlns="http://www.w3.org/2000/svg">
<path d="M132.715 43L126.595 29H129.415L134.875 41.66H133.255L138.775 29H141.375L135.275 43H132.715ZM146.832 43.14C145.645 43.14 144.605 42.9067 143.712 42.44C142.832 41.96 142.145 41.3067 141.652 40.48C141.172 39.6533 140.932 38.7133 140.932 37.66C140.932 36.5933 141.165 35.6533 141.632 34.84C142.112 34.0133 142.765 33.3667 143.592 32.9C144.432 32.4333 145.385 32.2 146.452 32.2C147.492 32.2 148.419 32.4267 149.232 32.88C150.045 33.3333 150.685 33.9733 151.152 34.8C151.619 35.6267 151.852 36.6 151.852 37.72C151.852 37.8267 151.845 37.9467 151.832 38.08C151.832 38.2133 151.825 38.34 151.812 38.46H142.912V36.8H150.492L149.512 37.32C149.525 36.7067 149.399 36.1667 149.132 35.7C148.865 35.2333 148.499 34.8667 148.032 34.6C147.579 34.3333 147.052 34.2 146.452 34.2C145.839 34.2 145.299 34.3333 144.832 34.6C144.379 34.8667 144.019 35.24 143.752 35.72C143.499 36.1867 143.372 36.74 143.372 37.38V37.78C143.372 38.42 143.519 38.9867 143.812 39.48C144.105 39.9733 144.519 40.3533 145.052 40.62C145.585 40.8867 146.199 41.02 146.892 41.02C147.492 41.02 148.032 40.9267 148.512 40.74C148.992 40.5533 149.419 40.26 149.792 39.86L151.132 41.4C150.652 41.96 150.045 42.3933 149.312 42.7C148.592 42.9933 147.765 43.14 146.832 43.14ZM160.313 32.2C161.167 32.2 161.927 32.3667 162.593 32.7C163.273 33.0333 163.807 33.5467 164.193 34.24C164.58 34.92 164.773 35.8 164.773 36.88V43H162.273V37.2C162.273 36.2533 162.047 35.5467 161.593 35.08C161.153 34.6133 160.533 34.38 159.733 34.38C159.147 34.38 158.627 34.5 158.173 34.74C157.72 34.98 157.367 35.34 157.113 35.82C156.873 36.2867 156.753 36.88 156.753 37.6V43H154.253V32.32H156.633V35.2L156.213 34.32C156.587 33.64 157.127 33.12 157.833 32.76C158.553 32.3867 159.38 32.2 160.313 32.2Z" fill="black"/>
<path d="M210 31.06C210.896 31.06 211.657 31.2513 212.282 31.634C212.917 32.0073 213.402 32.5533 213.738 33.272C214.074 33.9907 214.242 34.8773 214.242 35.932C214.242 37.052 214.037 37.9993 213.626 38.774C213.225 39.5487 212.665 40.1367 211.946 40.538C211.227 40.9393 210.392 41.14 209.44 41.14C208.945 41.14 208.474 41.0887 208.026 40.986C207.578 40.8833 207.191 40.7247 206.864 40.51L207.536 39.138C207.807 39.3153 208.101 39.4413 208.418 39.516C208.735 39.5813 209.062 39.614 209.398 39.614C210.322 39.614 211.055 39.3293 211.596 38.76C212.137 38.1907 212.408 37.3507 212.408 36.24C212.408 36.0627 212.403 35.8573 212.394 35.624C212.385 35.3813 212.352 35.1387 212.296 34.896L212.856 35.512C212.697 35.8947 212.469 36.2167 212.17 36.478C211.871 36.73 211.521 36.9213 211.12 37.052C210.719 37.1827 210.275 37.248 209.79 37.248C209.155 37.248 208.581 37.1267 208.068 36.884C207.564 36.632 207.163 36.282 206.864 35.834C206.565 35.3767 206.416 34.8447 206.416 34.238C206.416 33.5847 206.575 33.0247 206.892 32.558C207.209 32.082 207.639 31.7133 208.18 31.452C208.731 31.1907 209.337 31.06 210 31.06ZM210.098 32.488C209.725 32.488 209.393 32.558 209.104 32.698C208.815 32.8287 208.586 33.02 208.418 33.272C208.259 33.5147 208.18 33.8087 208.18 34.154C208.18 34.6673 208.357 35.0733 208.712 35.372C209.067 35.6707 209.543 35.82 210.14 35.82C210.532 35.82 210.877 35.75 211.176 35.61C211.475 35.4607 211.708 35.26 211.876 35.008C212.044 34.7467 212.128 34.4573 212.128 34.14C212.128 33.832 212.049 33.5567 211.89 33.314C211.731 33.062 211.503 32.8613 211.204 32.712C210.905 32.5627 210.537 32.488 210.098 32.488ZM219.561 41.14C218.787 41.14 218.087 40.944 217.461 40.552C216.845 40.16 216.36 39.5907 216.005 38.844C215.651 38.088 215.473 37.1733 215.473 36.1C215.473 35.0267 215.651 34.1167 216.005 33.37C216.36 32.614 216.845 32.04 217.461 31.648C218.087 31.256 218.787 31.06 219.561 31.06C220.345 31.06 221.045 31.256 221.661 31.648C222.277 32.04 222.763 32.614 223.117 33.37C223.481 34.1167 223.663 35.0267 223.663 36.1C223.663 37.1733 223.481 38.088 223.117 38.844C222.763 39.5907 222.277 40.16 221.661 40.552C221.045 40.944 220.345 41.14 219.561 41.14ZM219.561 39.558C220.019 39.558 220.415 39.4367 220.751 39.194C221.087 38.942 221.349 38.5593 221.535 38.046C221.731 37.5327 221.829 36.884 221.829 36.1C221.829 35.3067 221.731 34.658 221.535 34.154C221.349 33.6407 221.087 33.2627 220.751 33.02C220.415 32.768 220.019 32.642 219.561 32.642C219.123 32.642 218.731 32.768 218.385 33.02C218.049 33.2627 217.783 33.6407 217.587 34.154C217.401 34.658 217.307 35.3067 217.307 36.1C217.307 36.884 217.401 37.5327 217.587 38.046C217.783 38.5593 218.049 38.942 218.385 39.194C218.731 39.4367 219.123 39.558 219.561 39.558ZM228.981 41.14C228.207 41.14 227.507 40.944 226.881 40.552C226.265 40.16 225.78 39.5907 225.425 38.844C225.071 38.088 224.893 37.1733 224.893 36.1C224.893 35.0267 225.071 34.1167 225.425 33.37C225.78 32.614 226.265 32.04 226.881 31.648C227.507 31.256 228.207 31.06 228.981 31.06C229.765 31.06 230.465 31.256 231.081 31.648C231.697 32.04 232.183 32.614 232.537 33.37C232.901 34.1167 233.083 35.0267 233.083 36.1C233.083 37.1733 232.901 38.088 232.537 38.844C232.183 39.5907 231.697 40.16 231.081 40.552C230.465 40.944 229.765 41.14 228.981 41.14ZM228.981 39.558C229.439 39.558 229.835 39.4367 230.171 39.194C230.507 38.942 230.769 38.5593 230.955 38.046C231.151 37.5327 231.249 36.884 231.249 36.1C231.249 35.3067 231.151 34.658 230.955 34.154C230.769 33.6407 230.507 33.2627 230.171 33.02C229.835 32.768 229.439 32.642 228.981 32.642C228.543 32.642 228.151 32.768 227.805 33.02C227.469 33.2627 227.203 33.6407 227.007 34.154C226.821 34.658 226.727 35.3067 226.727 36.1C226.727 36.884 226.821 37.5327 227.007 38.046C227.203 38.5593 227.469 38.942 227.805 39.194C228.151 39.4367 228.543 39.558 228.981 39.558ZM242.102 43.814C241.412 43.814 240.735 43.7207 240.072 43.534C239.419 43.3567 238.882 43.0953 238.462 42.75L239.246 41.434C239.573 41.7047 239.984 41.9193 240.478 42.078C240.982 42.246 241.491 42.33 242.004 42.33C242.826 42.33 243.428 42.1387 243.81 41.756C244.193 41.3827 244.384 40.818 244.384 40.062V38.732L244.524 37.038L244.468 35.344V33.524H246.134V39.866C246.134 41.2193 245.789 42.2133 245.098 42.848C244.408 43.492 243.409 43.814 242.102 43.814ZM241.878 40.664C241.169 40.664 240.525 40.5147 239.946 40.216C239.377 39.908 238.924 39.4833 238.588 38.942C238.262 38.4007 238.098 37.766 238.098 37.038C238.098 36.3193 238.262 35.6893 238.588 35.148C238.924 34.6067 239.377 34.1867 239.946 33.888C240.525 33.5893 241.169 33.44 241.878 33.44C242.513 33.44 243.082 33.566 243.586 33.818C244.09 34.07 244.492 34.462 244.79 34.994C245.098 35.526 245.252 36.2073 245.252 37.038C245.252 37.8687 245.098 38.5547 244.79 39.096C244.492 39.628 244.09 40.0247 243.586 40.286C243.082 40.538 242.513 40.664 241.878 40.664ZM242.144 39.18C242.583 39.18 242.975 39.0913 243.32 38.914C243.666 38.7273 243.932 38.4753 244.118 38.158C244.314 37.8313 244.412 37.458 244.412 37.038C244.412 36.618 244.314 36.2493 244.118 35.932C243.932 35.6053 243.666 35.358 243.32 35.19C242.975 35.0127 242.583 34.924 242.144 34.924C241.706 34.924 241.309 35.0127 240.954 35.19C240.609 35.358 240.338 35.6053 240.142 35.932C239.956 36.2493 239.862 36.618 239.862 37.038C239.862 37.458 239.956 37.8313 240.142 38.158C240.338 38.4753 240.609 38.7273 240.954 38.914C241.309 39.0913 241.706 39.18 242.144 39.18ZM257.008 41.14C256.262 41.14 255.566 41.0187 254.922 40.776C254.288 40.524 253.732 40.174 253.256 39.726C252.79 39.2687 252.426 38.732 252.164 38.116C251.903 37.5 251.772 36.828 251.772 36.1C251.772 35.372 251.903 34.7 252.164 34.084C252.426 33.468 252.794 32.936 253.27 32.488C253.746 32.0307 254.302 31.6807 254.936 31.438C255.571 31.186 256.266 31.06 257.022 31.06C257.825 31.06 258.558 31.2 259.22 31.48C259.883 31.7507 260.443 32.1567 260.9 32.698L259.724 33.804C259.37 33.4213 258.973 33.1367 258.534 32.95C258.096 32.754 257.62 32.656 257.106 32.656C256.593 32.656 256.122 32.74 255.692 32.908C255.272 33.076 254.904 33.314 254.586 33.622C254.278 33.93 254.036 34.294 253.858 34.714C253.69 35.134 253.606 35.596 253.606 36.1C253.606 36.604 253.69 37.066 253.858 37.486C254.036 37.906 254.278 38.27 254.586 38.578C254.904 38.886 255.272 39.124 255.692 39.292C256.122 39.46 256.593 39.544 257.106 39.544C257.62 39.544 258.096 39.4507 258.534 39.264C258.973 39.068 259.37 38.774 259.724 38.382L260.9 39.502C260.443 40.034 259.883 40.44 259.22 40.72C258.558 41 257.82 41.14 257.008 41.14ZM267.031 41.14C266.266 41.14 265.561 41.014 264.917 40.762C264.273 40.51 263.713 40.16 263.237 39.712C262.761 39.2547 262.392 38.7227 262.131 38.116C261.87 37.5 261.739 36.828 261.739 36.1C261.739 35.372 261.87 34.7047 262.131 34.098C262.392 33.482 262.761 32.95 263.237 32.502C263.713 32.0447 264.273 31.69 264.917 31.438C265.561 31.186 266.261 31.06 267.017 31.06C267.782 31.06 268.482 31.186 269.117 31.438C269.761 31.69 270.321 32.0447 270.797 32.502C271.273 32.95 271.642 33.482 271.903 34.098C272.164 34.7047 272.295 35.372 272.295 36.1C272.295 36.828 272.164 37.5 271.903 38.116C271.642 38.732 271.273 39.264 270.797 39.712C270.321 40.16 269.761 40.51 269.117 40.762C268.482 41.014 267.787 41.14 267.031 41.14ZM267.017 39.544C267.512 39.544 267.969 39.46 268.389 39.292C268.809 39.124 269.173 38.886 269.481 38.578C269.789 38.2607 270.027 37.8967 270.195 37.486C270.372 37.066 270.461 36.604 270.461 36.1C270.461 35.596 270.372 35.1387 270.195 34.728C270.027 34.308 269.789 33.944 269.481 33.636C269.173 33.3187 268.809 33.076 268.389 32.908C267.969 32.74 267.512 32.656 267.017 32.656C266.522 32.656 266.065 32.74 265.645 32.908C265.234 33.076 264.87 33.3187 264.553 33.636C264.245 33.944 264.002 34.308 263.825 34.728C263.657 35.1387 263.573 35.596 263.573 36.1C263.573 36.5947 263.657 37.052 263.825 37.472C264.002 37.892 264.245 38.2607 264.553 38.578C264.861 38.886 265.225 39.124 265.645 39.292C266.065 39.46 266.522 39.544 267.017 39.544ZM273.261 41V39.782L277.153 36.086C277.48 35.778 277.723 35.5073 277.881 35.274C278.04 35.0407 278.143 34.826 278.189 34.63C278.245 34.4247 278.273 34.2333 278.273 34.056C278.273 33.608 278.119 33.2627 277.811 33.02C277.503 32.768 277.051 32.642 276.453 32.642C275.977 32.642 275.543 32.726 275.151 32.894C274.769 33.062 274.437 33.3187 274.157 33.664L272.883 32.684C273.266 32.1707 273.779 31.774 274.423 31.494C275.077 31.2047 275.805 31.06 276.607 31.06C277.317 31.06 277.933 31.1767 278.455 31.41C278.987 31.634 279.393 31.956 279.673 32.376C279.963 32.796 280.107 33.2953 280.107 33.874C280.107 34.1913 280.065 34.5087 279.981 34.826C279.897 35.134 279.739 35.4607 279.505 35.806C279.272 36.1513 278.931 36.5387 278.483 36.968L275.137 40.146L274.759 39.46H280.485V41H273.261Z" fill="black"/>
<path d="M209.209 92L213.255 82.928L213.731 83.74H208.173L209.041 82.858V85.406H207.347V82.2H214.963V83.418L211.155 92H209.209ZM219.091 92.14C218.4 92.14 217.723 92.042 217.061 91.846C216.407 91.6407 215.857 91.3607 215.409 91.006L216.179 89.592C216.533 89.8813 216.963 90.1147 217.467 90.292C217.98 90.4693 218.512 90.558 219.063 90.558C219.707 90.558 220.211 90.4227 220.575 90.152C220.948 89.8813 221.135 89.5173 221.135 89.06C221.135 88.752 221.055 88.4813 220.897 88.248C220.747 88.0147 220.477 87.8373 220.085 87.716C219.702 87.5947 219.175 87.534 218.503 87.534H216.137L216.641 82.2H222.395V83.726H217.313L218.265 82.858L217.887 86.848L216.935 85.994H218.909C219.879 85.994 220.659 86.1247 221.247 86.386C221.844 86.638 222.278 86.9927 222.549 87.45C222.829 87.898 222.969 88.4113 222.969 88.99C222.969 89.5593 222.829 90.082 222.549 90.558C222.269 91.034 221.839 91.4167 221.261 91.706C220.691 91.9953 219.968 92.14 219.091 92.14ZM228.106 92.14C227.332 92.14 226.632 91.944 226.006 91.552C225.39 91.16 224.905 90.5907 224.55 89.844C224.196 89.088 224.018 88.1733 224.018 87.1C224.018 86.0267 224.196 85.1167 224.55 84.37C224.905 83.614 225.39 83.04 226.006 82.648C226.632 82.256 227.332 82.06 228.106 82.06C228.89 82.06 229.59 82.256 230.206 82.648C230.822 83.04 231.308 83.614 231.662 84.37C232.026 85.1167 232.208 86.0267 232.208 87.1C232.208 88.1733 232.026 89.088 231.662 89.844C231.308 90.5907 230.822 91.16 230.206 91.552C229.59 91.944 228.89 92.14 228.106 92.14ZM228.106 90.558C228.564 90.558 228.96 90.4367 229.296 90.194C229.632 89.942 229.894 89.5593 230.08 89.046C230.276 88.5327 230.374 87.884 230.374 87.1C230.374 86.3067 230.276 85.658 230.08 85.154C229.894 84.6407 229.632 84.2627 229.296 84.02C228.96 83.768 228.564 83.642 228.106 83.642C227.668 83.642 227.276 83.768 226.93 84.02C226.594 84.2627 226.328 84.6407 226.132 85.154C225.946 85.658 225.852 86.3067 225.852 87.1C225.852 87.884 225.946 88.5327 226.132 89.046C226.328 89.5593 226.594 89.942 226.93 90.194C227.276 90.4367 227.668 90.558 228.106 90.558ZM241.227 94.814C240.537 94.814 239.86 94.7207 239.197 94.534C238.544 94.3567 238.007 94.0953 237.587 93.75L238.371 92.434C238.698 92.7047 239.109 92.9193 239.603 93.078C240.107 93.246 240.616 93.33 241.129 93.33C241.951 93.33 242.553 93.1387 242.935 92.756C243.318 92.3827 243.509 91.818 243.509 91.062V89.732L243.649 88.038L243.593 86.344V84.524H245.259V90.866C245.259 92.2193 244.914 93.2133 244.223 93.848C243.533 94.492 242.534 94.814 241.227 94.814ZM241.003 91.664C240.294 91.664 239.65 91.5147 239.071 91.216C238.502 90.908 238.049 90.4833 237.713 89.942C237.387 89.4007 237.223 88.766 237.223 88.038C237.223 87.3193 237.387 86.6893 237.713 86.148C238.049 85.6067 238.502 85.1867 239.071 84.888C239.65 84.5893 240.294 84.44 241.003 84.44C241.638 84.44 242.207 84.566 242.711 84.818C243.215 85.07 243.617 85.462 243.915 85.994C244.223 86.526 244.377 87.2073 244.377 88.038C244.377 88.8687 244.223 89.5547 243.915 90.096C243.617 90.628 243.215 91.0247 242.711 91.286C242.207 91.538 241.638 91.664 241.003 91.664ZM241.269 90.18C241.708 90.18 242.1 90.0913 242.445 89.914C242.791 89.7273 243.057 89.4753 243.243 89.158C243.439 88.8313 243.537 88.458 243.537 88.038C243.537 87.618 243.439 87.2493 243.243 86.932C243.057 86.6053 242.791 86.358 242.445 86.19C242.1 86.0127 241.708 85.924 241.269 85.924C240.831 85.924 240.434 86.0127 240.079 86.19C239.734 86.358 239.463 86.6053 239.267 86.932C239.081 87.2493 238.987 87.618 238.987 88.038C238.987 88.458 239.081 88.8313 239.267 89.158C239.463 89.4753 239.734 89.7273 240.079 89.914C240.434 90.0913 240.831 90.18 241.269 90.18ZM256.133 92.14C255.387 92.14 254.691 92.0187 254.047 91.776C253.413 91.524 252.857 91.174 252.381 90.726C251.915 90.2687 251.551 89.732 251.289 89.116C251.028 88.5 250.897 87.828 250.897 87.1C250.897 86.372 251.028 85.7 251.289 85.084C251.551 84.468 251.919 83.936 252.395 83.488C252.871 83.0307 253.427 82.6807 254.061 82.438C254.696 82.186 255.391 82.06 256.147 82.06C256.95 82.06 257.683 82.2 258.345 82.48C259.008 82.7507 259.568 83.1567 260.025 83.698L258.849 84.804C258.495 84.4213 258.098 84.1367 257.659 83.95C257.221 83.754 256.745 83.656 256.231 83.656C255.718 83.656 255.247 83.74 254.817 83.908C254.397 84.076 254.029 84.314 253.711 84.622C253.403 84.93 253.161 85.294 252.983 85.714C252.815 86.134 252.731 86.596 252.731 87.1C252.731 87.604 252.815 88.066 252.983 88.486C253.161 88.906 253.403 89.27 253.711 89.578C254.029 89.886 254.397 90.124 254.817 90.292C255.247 90.46 255.718 90.544 256.231 90.544C256.745 90.544 257.221 90.4507 257.659 90.264C258.098 90.068 258.495 89.774 258.849 89.382L260.025 90.502C259.568 91.034 259.008 91.44 258.345 91.72C257.683 92 256.945 92.14 256.133 92.14ZM266.156 92.14C265.391 92.14 264.686 92.014 264.042 91.762C263.398 91.51 262.838 91.16 262.362 90.712C261.886 90.2547 261.517 89.7227 261.256 89.116C260.995 88.5 260.864 87.828 260.864 87.1C260.864 86.372 260.995 85.7047 261.256 85.098C261.517 84.482 261.886 83.95 262.362 83.502C262.838 83.0447 263.398 82.69 264.042 82.438C264.686 82.186 265.386 82.06 266.142 82.06C266.907 82.06 267.607 82.186 268.242 82.438C268.886 82.69 269.446 83.0447 269.922 83.502C270.398 83.95 270.767 84.482 271.028 85.098C271.289 85.7047 271.42 86.372 271.42 87.1C271.42 87.828 271.289 88.5 271.028 89.116C270.767 89.732 270.398 90.264 269.922 90.712C269.446 91.16 268.886 91.51 268.242 91.762C267.607 92.014 266.912 92.14 266.156 92.14ZM266.142 90.544C266.637 90.544 267.094 90.46 267.514 90.292C267.934 90.124 268.298 89.886 268.606 89.578C268.914 89.2607 269.152 88.8967 269.32 88.486C269.497 88.066 269.586 87.604 269.586 87.1C269.586 86.596 269.497 86.1387 269.32 85.728C269.152 85.308 268.914 84.944 268.606 84.636C268.298 84.3187 267.934 84.076 267.514 83.908C267.094 83.74 266.637 83.656 266.142 83.656C265.647 83.656 265.19 83.74 264.77 83.908C264.359 84.076 263.995 84.3187 263.678 84.636C263.37 84.944 263.127 85.308 262.95 85.728C262.782 86.1387 262.698 86.596 262.698 87.1C262.698 87.5947 262.782 88.052 262.95 88.472C263.127 88.892 263.37 89.2607 263.678 89.578C263.986 89.886 264.35 90.124 264.77 90.292C265.19 90.46 265.647 90.544 266.142 90.544ZM272.386 92V90.782L276.278 87.086C276.605 86.778 276.848 86.5073 277.006 86.274C277.165 86.0407 277.268 85.826 277.314 85.63C277.37 85.4247 277.398 85.2333 277.398 85.056C277.398 84.608 277.244 84.2627 276.936 84.02C276.628 83.768 276.176 83.642 275.578 83.642C275.102 83.642 274.668 83.726 274.276 83.894C273.894 84.062 273.562 84.3187 273.282 84.664L272.008 83.684C272.391 83.1707 272.904 82.774 273.548 82.494C274.202 82.2047 274.93 82.06 275.732 82.06C276.442 82.06 277.058 82.1767 277.58 82.41C278.112 82.634 278.518 82.956 278.798 83.376C279.088 83.796 279.232 84.2953 279.232 84.874C279.232 85.1913 279.19 85.5087 279.106 85.826C279.022 86.134 278.864 86.4607 278.63 86.806C278.397 87.1513 278.056 87.5387 277.608 87.968L274.262 91.146L273.884 90.46H279.61V92H272.386Z" fill="black"/>
<path d="M210.938 142.14C210.051 142.14 209.291 141.953 208.656 141.58C208.021 141.197 207.536 140.647 207.2 139.928C206.864 139.209 206.696 138.323 206.696 137.268C206.696 136.148 206.897 135.201 207.298 134.426C207.709 133.651 208.273 133.063 208.992 132.662C209.72 132.261 210.555 132.06 211.498 132.06C211.993 132.06 212.464 132.111 212.912 132.214C213.369 132.317 213.757 132.475 214.074 132.69L213.402 134.062C213.131 133.885 212.837 133.763 212.52 133.698C212.212 133.623 211.885 133.586 211.54 133.586C210.616 133.586 209.883 133.871 209.342 134.44C208.801 135.009 208.53 135.849 208.53 136.96C208.53 137.137 208.535 137.347 208.544 137.59C208.553 137.823 208.586 138.061 208.642 138.304L208.082 137.688C208.25 137.305 208.479 136.988 208.768 136.736C209.067 136.475 209.417 136.279 209.818 136.148C210.229 136.017 210.672 135.952 211.148 135.952C211.792 135.952 212.366 136.078 212.87 136.33C213.374 136.573 213.775 136.923 214.074 137.38C214.373 137.828 214.522 138.355 214.522 138.962C214.522 139.606 214.363 140.166 214.046 140.642C213.729 141.118 213.299 141.487 212.758 141.748C212.217 142.009 211.61 142.14 210.938 142.14ZM210.84 140.712C211.213 140.712 211.545 140.647 211.834 140.516C212.123 140.376 212.347 140.18 212.506 139.928C212.674 139.676 212.758 139.382 212.758 139.046C212.758 138.533 212.581 138.127 212.226 137.828C211.871 137.529 211.395 137.38 210.798 137.38C210.406 137.38 210.061 137.455 209.762 137.604C209.473 137.744 209.239 137.94 209.062 138.192C208.894 138.444 208.81 138.733 208.81 139.06C208.81 139.359 208.889 139.634 209.048 139.886C209.207 140.138 209.435 140.339 209.734 140.488C210.042 140.637 210.411 140.712 210.84 140.712ZM219.561 142.14C218.787 142.14 218.087 141.944 217.461 141.552C216.845 141.16 216.36 140.591 216.005 139.844C215.651 139.088 215.473 138.173 215.473 137.1C215.473 136.027 215.651 135.117 216.005 134.37C216.36 133.614 216.845 133.04 217.461 132.648C218.087 132.256 218.787 132.06 219.561 132.06C220.345 132.06 221.045 132.256 221.661 132.648C222.277 133.04 222.763 133.614 223.117 134.37C223.481 135.117 223.663 136.027 223.663 137.1C223.663 138.173 223.481 139.088 223.117 139.844C222.763 140.591 222.277 141.16 221.661 141.552C221.045 141.944 220.345 142.14 219.561 142.14ZM219.561 140.558C220.019 140.558 220.415 140.437 220.751 140.194C221.087 139.942 221.349 139.559 221.535 139.046C221.731 138.533 221.829 137.884 221.829 137.1C221.829 136.307 221.731 135.658 221.535 135.154C221.349 134.641 221.087 134.263 220.751 134.02C220.415 133.768 220.019 133.642 219.561 133.642C219.123 133.642 218.731 133.768 218.385 134.02C218.049 134.263 217.783 134.641 217.587 135.154C217.401 135.658 217.307 136.307 217.307 137.1C217.307 137.884 217.401 138.533 217.587 139.046C217.783 139.559 218.049 139.942 218.385 140.194C218.731 140.437 219.123 140.558 219.561 140.558ZM228.981 142.14C228.207 142.14 227.507 141.944 226.881 141.552C226.265 141.16 225.78 140.591 225.425 139.844C225.071 139.088 224.893 138.173 224.893 137.1C224.893 136.027 225.071 135.117 225.425 134.37C225.78 133.614 226.265 133.04 226.881 132.648C227.507 132.256 228.207 132.06 228.981 132.06C229.765 132.06 230.465 132.256 231.081 132.648C231.697 133.04 232.183 133.614 232.537 134.37C232.901 135.117 233.083 136.027 233.083 137.1C233.083 138.173 232.901 139.088 232.537 139.844C232.183 140.591 231.697 141.16 231.081 141.552C230.465 141.944 229.765 142.14 228.981 142.14ZM228.981 140.558C229.439 140.558 229.835 140.437 230.171 140.194C230.507 139.942 230.769 139.559 230.955 139.046C231.151 138.533 231.249 137.884 231.249 137.1C231.249 136.307 231.151 135.658 230.955 135.154C230.769 134.641 230.507 134.263 230.171 134.02C229.835 133.768 229.439 133.642 228.981 133.642C228.543 133.642 228.151 133.768 227.805 134.02C227.469 134.263 227.203 134.641 227.007 135.154C226.821 135.658 226.727 136.307 226.727 137.1C226.727 137.884 226.821 138.533 227.007 139.046C227.203 139.559 227.469 139.942 227.805 140.194C228.151 140.437 228.543 140.558 228.981 140.558ZM242.102 144.814C241.412 144.814 240.735 144.721 240.072 144.534C239.419 144.357 238.882 144.095 238.462 143.75L239.246 142.434C239.573 142.705 239.984 142.919 240.478 143.078C240.982 143.246 241.491 143.33 242.004 143.33C242.826 143.33 243.428 143.139 243.81 142.756C244.193 142.383 244.384 141.818 244.384 141.062V139.732L244.524 138.038L244.468 136.344V134.524H246.134V140.866C246.134 142.219 245.789 143.213 245.098 143.848C244.408 144.492 243.409 144.814 242.102 144.814ZM241.878 141.664C241.169 141.664 240.525 141.515 239.946 141.216C239.377 140.908 238.924 140.483 238.588 139.942C238.262 139.401 238.098 138.766 238.098 138.038C238.098 137.319 238.262 136.689 238.588 136.148C238.924 135.607 239.377 135.187 239.946 134.888C240.525 134.589 241.169 134.44 241.878 134.44C242.513 134.44 243.082 134.566 243.586 134.818C244.09 135.07 244.492 135.462 244.79 135.994C245.098 136.526 245.252 137.207 245.252 138.038C245.252 138.869 245.098 139.555 244.79 140.096C244.492 140.628 244.09 141.025 243.586 141.286C243.082 141.538 242.513 141.664 241.878 141.664ZM242.144 140.18C242.583 140.18 242.975 140.091 243.32 139.914C243.666 139.727 243.932 139.475 244.118 139.158C244.314 138.831 244.412 138.458 244.412 138.038C244.412 137.618 244.314 137.249 244.118 136.932C243.932 136.605 243.666 136.358 243.32 136.19C242.975 136.013 242.583 135.924 242.144 135.924C241.706 135.924 241.309 136.013 240.954 136.19C240.609 136.358 240.338 136.605 240.142 136.932C239.956 137.249 239.862 137.618 239.862 138.038C239.862 138.458 239.956 138.831 240.142 139.158C240.338 139.475 240.609 139.727 240.954 139.914C241.309 140.091 241.706 140.18 242.144 140.18ZM257.008 142.14C256.262 142.14 255.566 142.019 254.922 141.776C254.288 141.524 253.732 141.174 253.256 140.726C252.79 140.269 252.426 139.732 252.164 139.116C251.903 138.5 251.772 137.828 251.772 137.1C251.772 136.372 251.903 135.7 252.164 135.084C252.426 134.468 252.794 133.936 253.27 133.488C253.746 133.031 254.302 132.681 254.936 132.438C255.571 132.186 256.266 132.06 257.022 132.06C257.825 132.06 258.558 132.2 259.22 132.48C259.883 132.751 260.443 133.157 260.9 133.698L259.724 134.804C259.37 134.421 258.973 134.137 258.534 133.95C258.096 133.754 257.62 133.656 257.106 133.656C256.593 133.656 256.122 133.74 255.692 133.908C255.272 134.076 254.904 134.314 254.586 134.622C254.278 134.93 254.036 135.294 253.858 135.714C253.69 136.134 253.606 136.596 253.606 137.1C253.606 137.604 253.69 138.066 253.858 138.486C254.036 138.906 254.278 139.27 254.586 139.578C254.904 139.886 255.272 140.124 255.692 140.292C256.122 140.46 256.593 140.544 257.106 140.544C257.62 140.544 258.096 140.451 258.534 140.264C258.973 140.068 259.37 139.774 259.724 139.382L260.9 140.502C260.443 141.034 259.883 141.44 259.22 141.72C258.558 142 257.82 142.14 257.008 142.14ZM267.031 142.14C266.266 142.14 265.561 142.014 264.917 141.762C264.273 141.51 263.713 141.16 263.237 140.712C262.761 140.255 262.392 139.723 262.131 139.116C261.87 138.5 261.739 137.828 261.739 137.1C261.739 136.372 261.87 135.705 262.131 135.098C262.392 134.482 262.761 133.95 263.237 133.502C263.713 133.045 264.273 132.69 264.917 132.438C265.561 132.186 266.261 132.06 267.017 132.06C267.782 132.06 268.482 132.186 269.117 132.438C269.761 132.69 270.321 133.045 270.797 133.502C271.273 133.95 271.642 134.482 271.903 135.098C272.164 135.705 272.295 136.372 272.295 137.1C272.295 137.828 272.164 138.5 271.903 139.116C271.642 139.732 271.273 140.264 270.797 140.712C270.321 141.16 269.761 141.51 269.117 141.762C268.482 142.014 267.787 142.14 267.031 142.14ZM267.017 140.544C267.512 140.544 267.969 140.46 268.389 140.292C268.809 140.124 269.173 139.886 269.481 139.578C269.789 139.261 270.027 138.897 270.195 138.486C270.372 138.066 270.461 137.604 270.461 137.1C270.461 136.596 270.372 136.139 270.195 135.728C270.027 135.308 269.789 134.944 269.481 134.636C269.173 134.319 268.809 134.076 268.389 133.908C267.969 133.74 267.512 133.656 267.017 133.656C266.522 133.656 266.065 133.74 265.645 133.908C265.234 134.076 264.87 134.319 264.553 134.636C264.245 134.944 264.002 135.308 263.825 135.728C263.657 136.139 263.573 136.596 263.573 137.1C263.573 137.595 263.657 138.052 263.825 138.472C264.002 138.892 264.245 139.261 264.553 139.578C264.861 139.886 265.225 140.124 265.645 140.292C266.065 140.46 266.522 140.544 267.017 140.544ZM273.261 142V140.782L277.153 137.086C277.48 136.778 277.723 136.507 277.881 136.274C278.04 136.041 278.143 135.826 278.189 135.63C278.245 135.425 278.273 135.233 278.273 135.056C278.273 134.608 278.119 134.263 277.811 134.02C277.503 133.768 277.051 133.642 276.453 133.642C275.977 133.642 275.543 133.726 275.151 133.894C274.769 134.062 274.437 134.319 274.157 134.664L272.883 133.684C273.266 133.171 273.779 132.774 274.423 132.494C275.077 132.205 275.805 132.06 276.607 132.06C277.317 132.06 277.933 132.177 278.455 132.41C278.987 132.634 279.393 132.956 279.673 133.376C279.963 133.796 280.107 134.295 280.107 134.874C280.107 135.191 280.065 135.509 279.981 135.826C279.897 136.134 279.739 136.461 279.505 136.806C279.272 137.151 278.931 137.539 278.483 137.968L275.137 141.146L274.759 140.46H280.485V142H273.261Z" fill="black"/>
<path d="M219.746 179.1C219.253 179.1 218.77 179.03 218.296 178.89C217.83 178.743 217.436 178.543 217.116 178.29L217.666 177.28C217.92 177.487 218.226 177.653 218.586 177.78C218.953 177.907 219.333 177.97 219.726 177.97C220.186 177.97 220.546 177.873 220.806 177.68C221.073 177.487 221.206 177.227 221.206 176.9C221.206 176.68 221.15 176.487 221.036 176.32C220.93 176.153 220.736 176.027 220.456 175.94C220.183 175.853 219.806 175.81 219.326 175.81H217.636L217.996 172H222.106V173.09H218.476L219.156 172.47L218.886 175.32L218.206 174.71H219.616C220.31 174.71 220.866 174.803 221.286 174.99C221.713 175.17 222.023 175.423 222.216 175.75C222.416 176.07 222.516 176.437 222.516 176.85C222.516 177.257 222.416 177.63 222.216 177.97C222.016 178.31 221.71 178.583 221.296 178.79C220.89 178.997 220.373 179.1 219.746 179.1ZM226.186 179.1C225.633 179.1 225.133 178.96 224.686 178.68C224.246 178.4 223.9 177.993 223.646 177.46C223.393 176.92 223.266 176.267 223.266 175.5C223.266 174.733 223.393 174.083 223.646 173.55C223.9 173.01 224.246 172.6 224.686 172.32C225.133 172.04 225.633 171.9 226.186 171.9C226.746 171.9 227.246 172.04 227.686 172.32C228.126 172.6 228.473 173.01 228.726 173.55C228.986 174.083 229.116 174.733 229.116 175.5C229.116 176.267 228.986 176.92 228.726 177.46C228.473 177.993 228.126 178.4 227.686 178.68C227.246 178.96 226.746 179.1 226.186 179.1ZM226.186 177.97C226.513 177.97 226.796 177.883 227.036 177.71C227.276 177.53 227.463 177.257 227.596 176.89C227.736 176.523 227.806 176.06 227.806 175.5C227.806 174.933 227.736 174.47 227.596 174.11C227.463 173.743 227.276 173.473 227.036 173.3C226.796 173.12 226.513 173.03 226.186 173.03C225.873 173.03 225.593 173.12 225.346 173.3C225.106 173.473 224.916 173.743 224.776 174.11C224.643 174.47 224.576 174.933 224.576 175.5C224.576 176.06 224.643 176.523 224.776 176.89C224.916 177.257 225.106 177.53 225.346 177.71C225.593 177.883 225.873 177.97 226.186 177.97ZM232.915 179.1C232.361 179.1 231.861 178.96 231.415 178.68C230.975 178.4 230.628 177.993 230.375 177.46C230.121 176.92 229.995 176.267 229.995 175.5C229.995 174.733 230.121 174.083 230.375 173.55C230.628 173.01 230.975 172.6 231.415 172.32C231.861 172.04 232.361 171.9 232.915 171.9C233.475 171.9 233.975 172.04 234.415 172.32C234.855 172.6 235.201 173.01 235.455 173.55C235.715 174.083 235.845 174.733 235.845 175.5C235.845 176.267 235.715 176.92 235.455 177.46C235.201 177.993 234.855 178.4 234.415 178.68C233.975 178.96 233.475 179.1 232.915 179.1ZM232.915 177.97C233.241 177.97 233.525 177.883 233.765 177.71C234.005 177.53 234.191 177.257 234.325 176.89C234.465 176.523 234.535 176.06 234.535 175.5C234.535 174.933 234.465 174.47 234.325 174.11C234.191 173.743 234.005 173.473 233.765 173.3C233.525 173.12 233.241 173.03 232.915 173.03C232.601 173.03 232.321 173.12 232.075 173.3C231.835 173.473 231.645 173.743 231.505 174.11C231.371 174.47 231.305 174.933 231.305 175.5C231.305 176.06 231.371 176.523 231.505 176.89C231.645 177.257 231.835 177.53 232.075 177.71C232.321 177.883 232.601 177.97 232.915 177.97ZM242.287 181.01C241.794 181.01 241.31 180.943 240.837 180.81C240.37 180.683 239.987 180.497 239.687 180.25L240.247 179.31C240.48 179.503 240.774 179.657 241.127 179.77C241.487 179.89 241.85 179.95 242.217 179.95C242.804 179.95 243.234 179.813 243.507 179.54C243.78 179.273 243.917 178.87 243.917 178.33V177.38L244.017 176.17L243.977 174.96V173.66H245.167V178.19C245.167 179.157 244.92 179.867 244.427 180.32C243.934 180.78 243.22 181.01 242.287 181.01ZM242.127 178.76C241.62 178.76 241.16 178.653 240.747 178.44C240.34 178.22 240.017 177.917 239.777 177.53C239.544 177.143 239.427 176.69 239.427 176.17C239.427 175.657 239.544 175.207 239.777 174.82C240.017 174.433 240.34 174.133 240.747 173.92C241.16 173.707 241.62 173.6 242.127 173.6C242.58 173.6 242.987 173.69 243.347 173.87C243.707 174.05 243.994 174.33 244.207 174.71C244.427 175.09 244.537 175.577 244.537 176.17C244.537 176.763 244.427 177.253 244.207 177.64C243.994 178.02 243.707 178.303 243.347 178.49C242.987 178.67 242.58 178.76 242.127 178.76ZM242.317 177.7C242.63 177.7 242.91 177.637 243.157 177.51C243.404 177.377 243.594 177.197 243.727 176.97C243.867 176.737 243.937 176.47 243.937 176.17C243.937 175.87 243.867 175.607 243.727 175.38C243.594 175.147 243.404 174.97 243.157 174.85C242.91 174.723 242.63 174.66 242.317 174.66C242.004 174.66 241.72 174.723 241.467 174.85C241.22 174.97 241.027 175.147 240.887 175.38C240.754 175.607 240.687 175.87 240.687 176.17C240.687 176.47 240.754 176.737 240.887 176.97C241.027 177.197 241.22 177.377 241.467 177.51C241.72 177.637 242.004 177.7 242.317 177.7ZM252.934 179.1C252.401 179.1 251.904 179.013 251.444 178.84C250.991 178.66 250.594 178.41 250.254 178.09C249.921 177.763 249.661 177.38 249.474 176.94C249.287 176.5 249.194 176.02 249.194 175.5C249.194 174.98 249.287 174.5 249.474 174.06C249.661 173.62 249.924 173.24 250.264 172.92C250.604 172.593 251.001 172.343 251.454 172.17C251.907 171.99 252.404 171.9 252.944 171.9C253.517 171.9 254.041 172 254.514 172.2C254.987 172.393 255.387 172.683 255.714 173.07L254.874 173.86C254.621 173.587 254.337 173.383 254.024 173.25C253.711 173.11 253.371 173.04 253.004 173.04C252.637 173.04 252.301 173.1 251.994 173.22C251.694 173.34 251.431 173.51 251.204 173.73C250.984 173.95 250.811 174.21 250.684 174.51C250.564 174.81 250.504 175.14 250.504 175.5C250.504 175.86 250.564 176.19 250.684 176.49C250.811 176.79 250.984 177.05 251.204 177.27C251.431 177.49 251.694 177.66 251.994 177.78C252.301 177.9 252.637 177.96 253.004 177.96C253.371 177.96 253.711 177.893 254.024 177.76C254.337 177.62 254.621 177.41 254.874 177.13L255.714 177.93C255.387 178.31 254.987 178.6 254.514 178.8C254.041 179 253.514 179.1 252.934 179.1ZM260.093 179.1C259.546 179.1 259.043 179.01 258.583 178.83C258.123 178.65 257.723 178.4 257.383 178.08C257.043 177.753 256.78 177.373 256.593 176.94C256.406 176.5 256.313 176.02 256.313 175.5C256.313 174.98 256.406 174.503 256.593 174.07C256.78 173.63 257.043 173.25 257.383 172.93C257.723 172.603 258.123 172.35 258.583 172.17C259.043 171.99 259.543 171.9 260.083 171.9C260.63 171.9 261.13 171.99 261.583 172.17C262.043 172.35 262.443 172.603 262.783 172.93C263.123 173.25 263.386 173.63 263.573 174.07C263.76 174.503 263.853 174.98 263.853 175.5C263.853 176.02 263.76 176.5 263.573 176.94C263.386 177.38 263.123 177.76 262.783 178.08C262.443 178.4 262.043 178.65 261.583 178.83C261.13 179.01 260.633 179.1 260.093 179.1ZM260.083 177.96C260.436 177.96 260.763 177.9 261.063 177.78C261.363 177.66 261.623 177.49 261.843 177.27C262.063 177.043 262.233 176.783 262.353 176.49C262.48 176.19 262.543 175.86 262.543 175.5C262.543 175.14 262.48 174.813 262.353 174.52C262.233 174.22 262.063 173.96 261.843 173.74C261.623 173.513 261.363 173.34 261.063 173.22C260.763 173.1 260.436 173.04 260.083 173.04C259.73 173.04 259.403 173.1 259.103 173.22C258.81 173.34 258.55 173.513 258.323 173.74C258.103 173.96 257.93 174.22 257.803 174.52C257.683 174.813 257.623 175.14 257.623 175.5C257.623 175.853 257.683 176.18 257.803 176.48C257.93 176.78 258.103 177.043 258.323 177.27C258.543 177.49 258.803 177.66 259.103 177.78C259.403 177.9 259.73 177.96 260.083 177.96ZM264.543 179V178.13L267.323 175.49C267.557 175.27 267.73 175.077 267.843 174.91C267.957 174.743 268.03 174.59 268.063 174.45C268.103 174.303 268.123 174.167 268.123 174.04C268.123 173.72 268.013 173.473 267.793 173.3C267.573 173.12 267.25 173.03 266.823 173.03C266.483 173.03 266.173 173.09 265.893 173.21C265.62 173.33 265.383 173.513 265.183 173.76L264.273 173.06C264.547 172.693 264.913 172.41 265.373 172.21C265.84 172.003 266.36 171.9 266.933 171.9C267.44 171.9 267.88 171.983 268.253 172.15C268.633 172.31 268.923 172.54 269.123 172.84C269.33 173.14 269.433 173.497 269.433 173.91C269.433 174.137 269.403 174.363 269.343 174.59C269.283 174.81 269.17 175.043 269.003 175.29C268.837 175.537 268.593 175.813 268.273 176.12L265.883 178.39L265.613 177.9H269.703V179H264.543Z" fill="black"/>
<path d="M216.853 207.41V206.51L220.303 202H221.693L218.293 206.51L217.643 206.31H223.193V207.41H216.853ZM220.693 209V207.41L220.733 206.31V204.9H221.953V209H220.693ZM226.66 209.1C226.106 209.1 225.606 208.96 225.16 208.68C224.72 208.4 224.373 207.993 224.12 207.46C223.866 206.92 223.74 206.267 223.74 205.5C223.74 204.733 223.866 204.083 224.12 203.55C224.373 203.01 224.72 202.6 225.16 202.32C225.606 202.04 226.106 201.9 226.66 201.9C227.22 201.9 227.72 202.04 228.16 202.32C228.6 202.6 228.946 203.01 229.2 203.55C229.46 204.083 229.59 204.733 229.59 205.5C229.59 206.267 229.46 206.92 229.2 207.46C228.946 207.993 228.6 208.4 228.16 208.68C227.72 208.96 227.22 209.1 226.66 209.1ZM226.66 207.97C226.986 207.97 227.27 207.883 227.51 207.71C227.75 207.53 227.936 207.257 228.07 206.89C228.21 206.523 228.28 206.06 228.28 205.5C228.28 204.933 228.21 204.47 228.07 204.11C227.936 203.743 227.75 203.473 227.51 203.3C227.27 203.12 226.986 203.03 226.66 203.03C226.346 203.03 226.066 203.12 225.82 203.3C225.58 203.473 225.39 203.743 225.25 204.11C225.116 204.47 225.05 204.933 225.05 205.5C225.05 206.06 225.116 206.523 225.25 206.89C225.39 207.257 225.58 207.53 225.82 207.71C226.066 207.883 226.346 207.97 226.66 207.97ZM233.388 209.1C232.835 209.1 232.335 208.96 231.888 208.68C231.448 208.4 231.102 207.993 230.848 207.46C230.595 206.92 230.468 206.267 230.468 205.5C230.468 204.733 230.595 204.083 230.848 203.55C231.102 203.01 231.448 202.6 231.888 202.32C232.335 202.04 232.835 201.9 233.388 201.9C233.948 201.9 234.448 202.04 234.888 202.32C235.328 202.6 235.675 203.01 235.928 203.55C236.188 204.083 236.318 204.733 236.318 205.5C236.318 206.267 236.188 206.92 235.928 207.46C235.675 207.993 235.328 208.4 234.888 208.68C234.448 208.96 233.948 209.1 233.388 209.1ZM233.388 207.97C233.715 207.97 233.998 207.883 234.238 207.71C234.478 207.53 234.665 207.257 234.798 206.89C234.938 206.523 235.008 206.06 235.008 205.5C235.008 204.933 234.938 204.47 234.798 204.11C234.665 203.743 234.478 203.473 234.238 203.3C233.998 203.12 233.715 203.03 233.388 203.03C233.075 203.03 232.795 203.12 232.548 203.3C232.308 203.473 232.118 203.743 231.978 204.11C231.845 204.47 231.778 204.933 231.778 205.5C231.778 206.06 231.845 206.523 231.978 206.89C232.118 207.257 232.308 207.53 232.548 207.71C232.795 207.883 233.075 207.97 233.388 207.97ZM242.761 211.01C242.267 211.01 241.784 210.943 241.311 210.81C240.844 210.683 240.461 210.497 240.161 210.25L240.721 209.31C240.954 209.503 241.247 209.657 241.601 209.77C241.961 209.89 242.324 209.95 242.691 209.95C243.277 209.95 243.707 209.813 243.981 209.54C244.254 209.273 244.391 208.87 244.391 208.33V207.38L244.491 206.17L244.451 204.96V203.66H245.641V208.19C245.641 209.157 245.394 209.867 244.901 210.32C244.407 210.78 243.694 211.01 242.761 211.01ZM242.601 208.76C242.094 208.76 241.634 208.653 241.221 208.44C240.814 208.22 240.491 207.917 240.251 207.53C240.017 207.143 239.901 206.69 239.901 206.17C239.901 205.657 240.017 205.207 240.251 204.82C240.491 204.433 240.814 204.133 241.221 203.92C241.634 203.707 242.094 203.6 242.601 203.6C243.054 203.6 243.461 203.69 243.821 203.87C244.181 204.05 244.467 204.33 244.681 204.71C244.901 205.09 245.011 205.577 245.011 206.17C245.011 206.763 244.901 207.253 244.681 207.64C244.467 208.02 244.181 208.303 243.821 208.49C243.461 208.67 243.054 208.76 242.601 208.76ZM242.791 207.7C243.104 207.7 243.384 207.637 243.631 207.51C243.877 207.377 244.067 207.197 244.201 206.97C244.341 206.737 244.411 206.47 244.411 206.17C244.411 205.87 244.341 205.607 244.201 205.38C244.067 205.147 243.877 204.97 243.631 204.85C243.384 204.723 243.104 204.66 242.791 204.66C242.477 204.66 242.194 204.723 241.941 204.85C241.694 204.97 241.501 205.147 241.361 205.38C241.227 205.607 241.161 205.87 241.161 206.17C241.161 206.47 241.227 206.737 241.361 206.97C241.501 207.197 241.694 207.377 241.941 207.51C242.194 207.637 242.477 207.7 242.791 207.7ZM253.408 209.1C252.874 209.1 252.378 209.013 251.918 208.84C251.464 208.66 251.068 208.41 250.728 208.09C250.394 207.763 250.134 207.38 249.948 206.94C249.761 206.5 249.668 206.02 249.668 205.5C249.668 204.98 249.761 204.5 249.948 204.06C250.134 203.62 250.398 203.24 250.738 202.92C251.078 202.593 251.474 202.343 251.928 202.17C252.381 201.99 252.878 201.9 253.418 201.9C253.991 201.9 254.514 202 254.988 202.2C255.461 202.393 255.861 202.683 256.188 203.07L255.348 203.86C255.094 203.587 254.811 203.383 254.498 203.25C254.184 203.11 253.844 203.04 253.478 203.04C253.111 203.04 252.774 203.1 252.468 203.22C252.168 203.34 251.904 203.51 251.678 203.73C251.458 203.95 251.284 204.21 251.158 204.51C251.038 204.81 250.978 205.14 250.978 205.5C250.978 205.86 251.038 206.19 251.158 206.49C251.284 206.79 251.458 207.05 251.678 207.27C251.904 207.49 252.168 207.66 252.468 207.78C252.774 207.9 253.111 207.96 253.478 207.96C253.844 207.96 254.184 207.893 254.498 207.76C254.811 207.62 255.094 207.41 255.348 207.13L256.188 207.93C255.861 208.31 255.461 208.6 254.988 208.8C254.514 209 253.988 209.1 253.408 209.1ZM260.567 209.1C260.02 209.1 259.517 209.01 259.057 208.83C258.597 208.65 258.197 208.4 257.857 208.08C257.517 207.753 257.253 207.373 257.067 206.94C256.88 206.5 256.787 206.02 256.787 205.5C256.787 204.98 256.88 204.503 257.067 204.07C257.253 203.63 257.517 203.25 257.857 202.93C258.197 202.603 258.597 202.35 259.057 202.17C259.517 201.99 260.017 201.9 260.557 201.9C261.103 201.9 261.603 201.99 262.057 202.17C262.517 202.35 262.917 202.603 263.257 202.93C263.597 203.25 263.86 203.63 264.047 204.07C264.233 204.503 264.327 204.98 264.327 205.5C264.327 206.02 264.233 206.5 264.047 206.94C263.86 207.38 263.597 207.76 263.257 208.08C262.917 208.4 262.517 208.65 262.057 208.83C261.603 209.01 261.107 209.1 260.567 209.1ZM260.557 207.96C260.91 207.96 261.237 207.9 261.537 207.78C261.837 207.66 262.097 207.49 262.317 207.27C262.537 207.043 262.707 206.783 262.827 206.49C262.953 206.19 263.017 205.86 263.017 205.5C263.017 205.14 262.953 204.813 262.827 204.52C262.707 204.22 262.537 203.96 262.317 203.74C262.097 203.513 261.837 203.34 261.537 203.22C261.237 203.1 260.91 203.04 260.557 203.04C260.203 203.04 259.877 203.1 259.577 203.22C259.283 203.34 259.023 203.513 258.797 203.74C258.577 203.96 258.403 204.22 258.277 204.52C258.157 204.813 258.097 205.14 258.097 205.5C258.097 205.853 258.157 206.18 258.277 206.48C258.403 206.78 258.577 207.043 258.797 207.27C259.017 207.49 259.277 207.66 259.577 207.78C259.877 207.9 260.203 207.96 260.557 207.96ZM265.017 209V208.13L267.797 205.49C268.03 205.27 268.204 205.077 268.317 204.91C268.43 204.743 268.504 204.59 268.537 204.45C268.577 204.303 268.597 204.167 268.597 204.04C268.597 203.72 268.487 203.473 268.267 203.3C268.047 203.12 267.724 203.03 267.297 203.03C266.957 203.03 266.647 203.09 266.367 203.21C266.094 203.33 265.857 203.513 265.657 203.76L264.747 203.06C265.02 202.693 265.387 202.41 265.847 202.21C266.314 202.003 266.834 201.9 267.407 201.9C267.914 201.9 268.354 201.983 268.727 202.15C269.107 202.31 269.397 202.54 269.597 202.84C269.804 203.14 269.907 203.497 269.907 203.91C269.907 204.137 269.877 204.363 269.817 204.59C269.757 204.81 269.644 205.043 269.477 205.29C269.31 205.537 269.067 205.813 268.747 206.12L266.357 208.39L266.087 207.9H270.177V209H265.017Z" fill="black"/>
<path d="M219.636 235.1C219.143 235.1 218.659 235.03 218.186 234.89C217.719 234.743 217.326 234.543 217.006 234.29L217.566 233.28C217.819 233.487 218.126 233.653 218.486 233.78C218.846 233.907 219.223 233.97 219.616 233.97C220.083 233.97 220.446 233.877 220.706 233.69C220.966 233.497 221.096 233.237 221.096 232.91C221.096 232.59 220.976 232.337 220.736 232.15C220.496 231.963 220.109 231.87 219.576 231.87H218.936V230.98L220.936 228.6L221.106 229.09H217.346V228H222.116V228.87L220.116 231.25L219.436 230.85H219.826C220.686 230.85 221.329 231.043 221.756 231.43C222.189 231.81 222.406 232.3 222.406 232.9C222.406 233.293 222.306 233.657 222.106 233.99C221.906 234.323 221.599 234.593 221.186 234.8C220.779 235 220.263 235.1 219.636 235.1ZM226.176 235.1C225.623 235.1 225.123 234.96 224.676 234.68C224.236 234.4 223.89 233.993 223.636 233.46C223.383 232.92 223.256 232.267 223.256 231.5C223.256 230.733 223.383 230.083 223.636 229.55C223.89 229.01 224.236 228.6 224.676 228.32C225.123 228.04 225.623 227.9 226.176 227.9C226.736 227.9 227.236 228.04 227.676 228.32C228.116 228.6 228.463 229.01 228.716 229.55C228.976 230.083 229.106 230.733 229.106 231.5C229.106 232.267 228.976 232.92 228.716 233.46C228.463 233.993 228.116 234.4 227.676 234.68C227.236 234.96 226.736 235.1 226.176 235.1ZM226.176 233.97C226.503 233.97 226.786 233.883 227.026 233.71C227.266 233.53 227.453 233.257 227.586 232.89C227.726 232.523 227.796 232.06 227.796 231.5C227.796 230.933 227.726 230.47 227.586 230.11C227.453 229.743 227.266 229.473 227.026 229.3C226.786 229.12 226.503 229.03 226.176 229.03C225.863 229.03 225.583 229.12 225.336 229.3C225.096 229.473 224.906 229.743 224.766 230.11C224.633 230.47 224.566 230.933 224.566 231.5C224.566 232.06 224.633 232.523 224.766 232.89C224.906 233.257 225.096 233.53 225.336 233.71C225.583 233.883 225.863 233.97 226.176 233.97ZM232.905 235.1C232.352 235.1 231.852 234.96 231.405 234.68C230.965 234.4 230.618 233.993 230.365 233.46C230.112 232.92 229.985 232.267 229.985 231.5C229.985 230.733 230.112 230.083 230.365 229.55C230.618 229.01 230.965 228.6 231.405 228.32C231.852 228.04 232.352 227.9 232.905 227.9C233.465 227.9 233.965 228.04 234.405 228.32C234.845 228.6 235.192 229.01 235.445 229.55C235.705 230.083 235.835 230.733 235.835 231.5C235.835 232.267 235.705 232.92 235.445 233.46C235.192 233.993 234.845 234.4 234.405 234.68C233.965 234.96 233.465 235.1 232.905 235.1ZM232.905 233.97C233.232 233.97 233.515 233.883 233.755 233.71C233.995 233.53 234.182 233.257 234.315 232.89C234.455 232.523 234.525 232.06 234.525 231.5C234.525 230.933 234.455 230.47 234.315 230.11C234.182 229.743 233.995 229.473 233.755 229.3C233.515 229.12 233.232 229.03 232.905 229.03C232.592 229.03 232.312 229.12 232.065 229.3C231.825 229.473 231.635 229.743 231.495 230.11C231.362 230.47 231.295 230.933 231.295 231.5C231.295 232.06 231.362 232.523 231.495 232.89C231.635 233.257 231.825 233.53 232.065 233.71C232.312 233.883 232.592 233.97 232.905 233.97ZM242.277 237.01C241.784 237.01 241.3 236.943 240.827 236.81C240.36 236.683 239.977 236.497 239.677 236.25L240.237 235.31C240.47 235.503 240.764 235.657 241.117 235.77C241.477 235.89 241.84 235.95 242.207 235.95C242.794 235.95 243.224 235.813 243.497 235.54C243.77 235.273 243.907 234.87 243.907 234.33V233.38L244.007 232.17L243.967 230.96V229.66H245.157V234.19C245.157 235.157 244.91 235.867 244.417 236.32C243.924 236.78 243.21 237.01 242.277 237.01ZM242.117 234.76C241.61 234.76 241.15 234.653 240.737 234.44C240.33 234.22 240.007 233.917 239.767 233.53C239.534 233.143 239.417 232.69 239.417 232.17C239.417 231.657 239.534 231.207 239.767 230.82C240.007 230.433 240.33 230.133 240.737 229.92C241.15 229.707 241.61 229.6 242.117 229.6C242.57 229.6 242.977 229.69 243.337 229.87C243.697 230.05 243.984 230.33 244.197 230.71C244.417 231.09 244.527 231.577 244.527 232.17C244.527 232.763 244.417 233.253 244.197 233.64C243.984 234.02 243.697 234.303 243.337 234.49C242.977 234.67 242.57 234.76 242.117 234.76ZM242.307 233.7C242.62 233.7 242.9 233.637 243.147 233.51C243.394 233.377 243.584 233.197 243.717 232.97C243.857 232.737 243.927 232.47 243.927 232.17C243.927 231.87 243.857 231.607 243.717 231.38C243.584 231.147 243.394 230.97 243.147 230.85C242.9 230.723 242.62 230.66 242.307 230.66C241.994 230.66 241.71 230.723 241.457 230.85C241.21 230.97 241.017 231.147 240.877 231.38C240.744 231.607 240.677 231.87 240.677 232.17C240.677 232.47 240.744 232.737 240.877 232.97C241.017 233.197 241.21 233.377 241.457 233.51C241.71 233.637 241.994 233.7 242.307 233.7ZM252.924 235.1C252.391 235.1 251.894 235.013 251.434 234.84C250.981 234.66 250.584 234.41 250.244 234.09C249.911 233.763 249.651 233.38 249.464 232.94C249.277 232.5 249.184 232.02 249.184 231.5C249.184 230.98 249.277 230.5 249.464 230.06C249.651 229.62 249.914 229.24 250.254 228.92C250.594 228.593 250.991 228.343 251.444 228.17C251.897 227.99 252.394 227.9 252.934 227.9C253.507 227.9 254.031 228 254.504 228.2C254.977 228.393 255.377 228.683 255.704 229.07L254.864 229.86C254.611 229.587 254.327 229.383 254.014 229.25C253.701 229.11 253.361 229.04 252.994 229.04C252.627 229.04 252.291 229.1 251.984 229.22C251.684 229.34 251.421 229.51 251.194 229.73C250.974 229.95 250.801 230.21 250.674 230.51C250.554 230.81 250.494 231.14 250.494 231.5C250.494 231.86 250.554 232.19 250.674 232.49C250.801 232.79 250.974 233.05 251.194 233.27C251.421 233.49 251.684 233.66 251.984 233.78C252.291 233.9 252.627 233.96 252.994 233.96C253.361 233.96 253.701 233.893 254.014 233.76C254.327 233.62 254.611 233.41 254.864 233.13L255.704 233.93C255.377 234.31 254.977 234.6 254.504 234.8C254.031 235 253.504 235.1 252.924 235.1ZM260.083 235.1C259.537 235.1 259.033 235.01 258.573 234.83C258.113 234.65 257.713 234.4 257.373 234.08C257.033 233.753 256.77 233.373 256.583 232.94C256.397 232.5 256.303 232.02 256.303 231.5C256.303 230.98 256.397 230.503 256.583 230.07C256.77 229.63 257.033 229.25 257.373 228.93C257.713 228.603 258.113 228.35 258.573 228.17C259.033 227.99 259.533 227.9 260.073 227.9C260.62 227.9 261.12 227.99 261.573 228.17C262.033 228.35 262.433 228.603 262.773 228.93C263.113 229.25 263.377 229.63 263.563 230.07C263.75 230.503 263.843 230.98 263.843 231.5C263.843 232.02 263.75 232.5 263.563 232.94C263.377 233.38 263.113 233.76 262.773 234.08C262.433 234.4 262.033 234.65 261.573 234.83C261.12 235.01 260.623 235.1 260.083 235.1ZM260.073 233.96C260.427 233.96 260.753 233.9 261.053 233.78C261.353 233.66 261.613 233.49 261.833 233.27C262.053 233.043 262.223 232.783 262.343 232.49C262.47 232.19 262.533 231.86 262.533 231.5C262.533 231.14 262.47 230.813 262.343 230.52C262.223 230.22 262.053 229.96 261.833 229.74C261.613 229.513 261.353 229.34 261.053 229.22C260.753 229.1 260.427 229.04 260.073 229.04C259.72 229.04 259.393 229.1 259.093 229.22C258.8 229.34 258.54 229.513 258.313 229.74C258.093 229.96 257.92 230.22 257.793 230.52C257.673 230.813 257.613 231.14 257.613 231.5C257.613 231.853 257.673 232.18 257.793 232.48C257.92 232.78 258.093 233.043 258.313 233.27C258.533 233.49 258.793 233.66 259.093 233.78C259.393 233.9 259.72 233.96 260.073 233.96ZM264.534 235V234.13L267.314 231.49C267.547 231.27 267.72 231.077 267.834 230.91C267.947 230.743 268.02 230.59 268.054 230.45C268.094 230.303 268.114 230.167 268.114 230.04C268.114 229.72 268.004 229.473 267.784 229.3C267.564 229.12 267.24 229.03 266.814 229.03C266.474 229.03 266.164 229.09 265.884 229.21C265.61 229.33 265.374 229.513 265.174 229.76L264.264 229.06C264.537 228.693 264.904 228.41 265.364 228.21C265.83 228.003 266.35 227.9 266.924 227.9C267.43 227.9 267.87 227.983 268.244 228.15C268.624 228.31 268.914 228.54 269.114 228.84C269.32 229.14 269.424 229.497 269.424 229.91C269.424 230.137 269.394 230.363 269.334 230.59C269.274 230.81 269.16 231.043 268.994 231.29C268.827 231.537 268.584 231.813 268.264 232.12L265.874 234.39L265.604 233.9H269.694V235H264.534Z" fill="black"/>
<path d="M217.346 261V260.13L220.126 257.49C220.359 257.27 220.533 257.077 220.646 256.91C220.759 256.743 220.833 256.59 220.866 256.45C220.906 256.303 220.926 256.167 220.926 256.04C220.926 255.72 220.816 255.473 220.596 255.3C220.376 255.12 220.053 255.03 219.626 255.03C219.286 255.03 218.976 255.09 218.696 255.21C218.423 255.33 218.186 255.513 217.986 255.76L217.076 255.06C217.349 254.693 217.716 254.41 218.176 254.21C218.643 254.003 219.163 253.9 219.736 253.9C220.243 253.9 220.683 253.983 221.056 254.15C221.436 254.31 221.726 254.54 221.926 254.84C222.133 255.14 222.236 255.497 222.236 255.91C222.236 256.137 222.206 256.363 222.146 256.59C222.086 256.81 221.973 257.043 221.806 257.29C221.639 257.537 221.396 257.813 221.076 258.12L218.686 260.39L218.416 259.9H222.506V261H217.346ZM226.176 261.1C225.623 261.1 225.123 260.96 224.676 260.68C224.236 260.4 223.89 259.993 223.636 259.46C223.383 258.92 223.256 258.267 223.256 257.5C223.256 256.733 223.383 256.083 223.636 255.55C223.89 255.01 224.236 254.6 224.676 254.32C225.123 254.04 225.623 253.9 226.176 253.9C226.736 253.9 227.236 254.04 227.676 254.32C228.116 254.6 228.463 255.01 228.716 255.55C228.976 256.083 229.106 256.733 229.106 257.5C229.106 258.267 228.976 258.92 228.716 259.46C228.463 259.993 228.116 260.4 227.676 260.68C227.236 260.96 226.736 261.1 226.176 261.1ZM226.176 259.97C226.503 259.97 226.786 259.883 227.026 259.71C227.266 259.53 227.453 259.257 227.586 258.89C227.726 258.523 227.796 258.06 227.796 257.5C227.796 256.933 227.726 256.47 227.586 256.11C227.453 255.743 227.266 255.473 227.026 255.3C226.786 255.12 226.503 255.03 226.176 255.03C225.863 255.03 225.583 255.12 225.336 255.3C225.096 255.473 224.906 255.743 224.766 256.11C224.633 256.47 224.566 256.933 224.566 257.5C224.566 258.06 224.633 258.523 224.766 258.89C224.906 259.257 225.096 259.53 225.336 259.71C225.583 259.883 225.863 259.97 226.176 259.97ZM232.905 261.1C232.352 261.1 231.852 260.96 231.405 260.68C230.965 260.4 230.618 259.993 230.365 259.46C230.112 258.92 229.985 258.267 229.985 257.5C229.985 256.733 230.112 256.083 230.365 255.55C230.618 255.01 230.965 254.6 231.405 254.32C231.852 254.04 232.352 253.9 232.905 253.9C233.465 253.9 233.965 254.04 234.405 254.32C234.845 254.6 235.192 255.01 235.445 255.55C235.705 256.083 235.835 256.733 235.835 257.5C235.835 258.267 235.705 258.92 235.445 259.46C235.192 259.993 234.845 260.4 234.405 260.68C233.965 260.96 233.465 261.1 232.905 261.1ZM232.905 259.97C233.232 259.97 233.515 259.883 233.755 259.71C233.995 259.53 234.182 259.257 234.315 258.89C234.455 258.523 234.525 258.06 234.525 257.5C234.525 256.933 234.455 256.47 234.315 256.11C234.182 255.743 233.995 255.473 233.755 255.3C233.515 255.12 233.232 255.03 232.905 255.03C232.592 255.03 232.312 255.12 232.065 255.3C231.825 255.473 231.635 255.743 231.495 256.11C231.362 256.47 231.295 256.933 231.295 257.5C231.295 258.06 231.362 258.523 231.495 258.89C231.635 259.257 231.825 259.53 232.065 259.71C232.312 259.883 232.592 259.97 232.905 259.97ZM242.277 263.01C241.784 263.01 241.3 262.943 240.827 262.81C240.36 262.683 239.977 262.497 239.677 262.25L240.237 261.31C240.47 261.503 240.764 261.657 241.117 261.77C241.477 261.89 241.84 261.95 242.207 261.95C242.794 261.95 243.224 261.813 243.497 261.54C243.77 261.273 243.907 260.87 243.907 260.33V259.38L244.007 258.17L243.967 256.96V255.66H245.157V260.19C245.157 261.157 244.91 261.867 244.417 262.32C243.924 262.78 243.21 263.01 242.277 263.01ZM242.117 260.76C241.61 260.76 241.15 260.653 240.737 260.44C240.33 260.22 240.007 259.917 239.767 259.53C239.534 259.143 239.417 258.69 239.417 258.17C239.417 257.657 239.534 257.207 239.767 256.82C240.007 256.433 240.33 256.133 240.737 255.92C241.15 255.707 241.61 255.6 242.117 255.6C242.57 255.6 242.977 255.69 243.337 255.87C243.697 256.05 243.984 256.33 244.197 256.71C244.417 257.09 244.527 257.577 244.527 258.17C244.527 258.763 244.417 259.253 244.197 259.64C243.984 260.02 243.697 260.303 243.337 260.49C242.977 260.67 242.57 260.76 242.117 260.76ZM242.307 259.7C242.62 259.7 242.9 259.637 243.147 259.51C243.394 259.377 243.584 259.197 243.717 258.97C243.857 258.737 243.927 258.47 243.927 258.17C243.927 257.87 243.857 257.607 243.717 257.38C243.584 257.147 243.394 256.97 243.147 256.85C242.9 256.723 242.62 256.66 242.307 256.66C241.994 256.66 241.71 256.723 241.457 256.85C241.21 256.97 241.017 257.147 240.877 257.38C240.744 257.607 240.677 257.87 240.677 258.17C240.677 258.47 240.744 258.737 240.877 258.97C241.017 259.197 241.21 259.377 241.457 259.51C241.71 259.637 241.994 259.7 242.307 259.7ZM252.924 261.1C252.391 261.1 251.894 261.013 251.434 260.84C250.981 260.66 250.584 260.41 250.244 260.09C249.911 259.763 249.651 259.38 249.464 258.94C249.277 258.5 249.184 258.02 249.184 257.5C249.184 256.98 249.277 256.5 249.464 256.06C249.651 255.62 249.914 255.24 250.254 254.92C250.594 254.593 250.991 254.343 251.444 254.17C251.897 253.99 252.394 253.9 252.934 253.9C253.507 253.9 254.031 254 254.504 254.2C254.977 254.393 255.377 254.683 255.704 255.07L254.864 255.86C254.611 255.587 254.327 255.383 254.014 255.25C253.701 255.11 253.361 255.04 252.994 255.04C252.627 255.04 252.291 255.1 251.984 255.22C251.684 255.34 251.421 255.51 251.194 255.73C250.974 255.95 250.801 256.21 250.674 256.51C250.554 256.81 250.494 257.14 250.494 257.5C250.494 257.86 250.554 258.19 250.674 258.49C250.801 258.79 250.974 259.05 251.194 259.27C251.421 259.49 251.684 259.66 251.984 259.78C252.291 259.9 252.627 259.96 252.994 259.96C253.361 259.96 253.701 259.893 254.014 259.76C254.327 259.62 254.611 259.41 254.864 259.13L255.704 259.93C255.377 260.31 254.977 260.6 254.504 260.8C254.031 261 253.504 261.1 252.924 261.1ZM260.083 261.1C259.537 261.1 259.033 261.01 258.573 260.83C258.113 260.65 257.713 260.4 257.373 260.08C257.033 259.753 256.77 259.373 256.583 258.94C256.397 258.5 256.303 258.02 256.303 257.5C256.303 256.98 256.397 256.503 256.583 256.07C256.77 255.63 257.033 255.25 257.373 254.93C257.713 254.603 258.113 254.35 258.573 254.17C259.033 253.99 259.533 253.9 260.073 253.9C260.62 253.9 261.12 253.99 261.573 254.17C262.033 254.35 262.433 254.603 262.773 254.93C263.113 255.25 263.377 255.63 263.563 256.07C263.75 256.503 263.843 256.98 263.843 257.5C263.843 258.02 263.75 258.5 263.563 258.94C263.377 259.38 263.113 259.76 262.773 260.08C262.433 260.4 262.033 260.65 261.573 260.83C261.12 261.01 260.623 261.1 260.083 261.1ZM260.073 259.96C260.427 259.96 260.753 259.9 261.053 259.78C261.353 259.66 261.613 259.49 261.833 259.27C262.053 259.043 262.223 258.783 262.343 258.49C262.47 258.19 262.533 257.86 262.533 257.5C262.533 257.14 262.47 256.813 262.343 256.52C262.223 256.22 262.053 255.96 261.833 255.74C261.613 255.513 261.353 255.34 261.053 255.22C260.753 255.1 260.427 255.04 260.073 255.04C259.72 255.04 259.393 255.1 259.093 255.22C258.8 255.34 258.54 255.513 258.313 255.74C258.093 255.96 257.92 256.22 257.793 256.52C257.673 256.813 257.613 257.14 257.613 257.5C257.613 257.853 257.673 258.18 257.793 258.48C257.92 258.78 258.093 259.043 258.313 259.27C258.533 259.49 258.793 259.66 259.093 259.78C259.393 259.9 259.72 259.96 260.073 259.96ZM264.534 261V260.13L267.314 257.49C267.547 257.27 267.72 257.077 267.834 256.91C267.947 256.743 268.02 256.59 268.054 256.45C268.094 256.303 268.114 256.167 268.114 256.04C268.114 255.72 268.004 255.473 267.784 255.3C267.564 255.12 267.24 255.03 266.814 255.03C266.474 255.03 266.164 255.09 265.884 255.21C265.61 255.33 265.374 255.513 265.174 255.76L264.264 255.06C264.537 254.693 264.904 254.41 265.364 254.21C265.83 254.003 266.35 253.9 266.924 253.9C267.43 253.9 267.87 253.983 268.244 254.15C268.624 254.31 268.914 254.54 269.114 254.84C269.32 255.14 269.424 255.497 269.424 255.91C269.424 256.137 269.394 256.363 269.334 256.59C269.274 256.81 269.16 257.043 268.994 257.29C268.827 257.537 268.584 257.813 268.264 258.12L265.874 260.39L265.604 259.9H269.694V261H264.534Z" fill="black"/>
<path d="M132.715 94L126.595 80H129.415L134.875 92.66H133.255L138.775 80H141.375L135.275 94H132.715ZM146.832 94.14C145.645 94.14 144.605 93.9067 143.712 93.44C142.832 92.96 142.145 92.3067 141.652 91.48C141.172 90.6533 140.932 89.7133 140.932 88.66C140.932 87.5933 141.165 86.6533 141.632 85.84C142.112 85.0133 142.765 84.3667 143.592 83.9C144.432 83.4333 145.385 83.2 146.452 83.2C147.492 83.2 148.419 83.4267 149.232 83.88C150.045 84.3333 150.685 84.9733 151.152 85.8C151.619 86.6267 151.852 87.6 151.852 88.72C151.852 88.8267 151.845 88.9467 151.832 89.08C151.832 89.2133 151.825 89.34 151.812 89.46H142.912V87.8H150.492L149.512 88.32C149.525 87.7067 149.399 87.1667 149.132 86.7C148.865 86.2333 148.499 85.8667 148.032 85.6C147.579 85.3333 147.052 85.2 146.452 85.2C145.839 85.2 145.299 85.3333 144.832 85.6C144.379 85.8667 144.019 86.24 143.752 86.72C143.499 87.1867 143.372 87.74 143.372 88.38V88.78C143.372 89.42 143.519 89.9867 143.812 90.48C144.105 90.9733 144.519 91.3533 145.052 91.62C145.585 91.8867 146.199 92.02 146.892 92.02C147.492 92.02 148.032 91.9267 148.512 91.74C148.992 91.5533 149.419 91.26 149.792 90.86L151.132 92.4C150.652 92.96 150.045 93.3933 149.312 93.7C148.592 93.9933 147.765 94.14 146.832 94.14ZM160.313 83.2C161.167 83.2 161.927 83.3667 162.593 83.7C163.273 84.0333 163.807 84.5467 164.193 85.24C164.58 85.92 164.773 86.8 164.773 87.88V94H162.273V88.2C162.273 87.2533 162.047 86.5467 161.593 86.08C161.153 85.6133 160.533 85.38 159.733 85.38C159.147 85.38 158.627 85.5 158.173 85.74C157.72 85.98 157.367 86.34 157.113 86.82C156.873 87.2867 156.753 87.88 156.753 88.6V94H154.253V83.32H156.633V86.2L156.213 85.32C156.587 84.64 157.127 84.12 157.833 83.76C158.553 83.3867 159.38 83.2 160.313 83.2Z" fill="black"/>
<path d="M134.284 144V130H140.404C141.924 130 143.258 130.293 144.404 130.88C145.551 131.467 146.444 132.28 147.084 133.32C147.724 134.36 148.044 135.587 148.044 137C148.044 138.4 147.724 139.627 147.084 140.68C146.444 141.72 145.551 142.533 144.404 143.12C143.258 143.707 141.924 144 140.404 144H134.284ZM136.884 141.8H140.284C141.338 141.8 142.244 141.6 143.004 141.2C143.778 140.8 144.371 140.24 144.784 139.52C145.211 138.8 145.424 137.96 145.424 137C145.424 136.027 145.211 135.187 144.784 134.48C144.371 133.76 143.778 133.2 143.004 132.8C142.244 132.4 141.338 132.2 140.284 132.2H136.884V141.8ZM150.568 144V133.32H153.068V144H150.568ZM151.828 131.56C151.361 131.56 150.974 131.413 150.668 131.12C150.374 130.827 150.228 130.473 150.228 130.06C150.228 129.633 150.374 129.28 150.668 129C150.974 128.707 151.361 128.56 151.828 128.56C152.294 128.56 152.674 128.7 152.968 128.98C153.274 129.247 153.428 129.587 153.428 130C153.428 130.44 153.281 130.813 152.988 131.12C152.694 131.413 152.308 131.56 151.828 131.56ZM161.189 148.02C160.202 148.02 159.236 147.887 158.289 147.62C157.356 147.367 156.589 146.993 155.989 146.5L157.109 144.62C157.576 145.007 158.162 145.313 158.869 145.54C159.589 145.78 160.316 145.9 161.049 145.9C162.222 145.9 163.082 145.627 163.629 145.08C164.176 144.547 164.449 143.74 164.449 142.66V140.76L164.649 138.34L164.569 135.92V133.32H166.949V142.38C166.949 144.313 166.456 145.733 165.469 146.64C164.482 147.56 163.056 148.02 161.189 148.02ZM160.869 143.52C159.856 143.52 158.936 143.307 158.109 142.88C157.296 142.44 156.649 141.833 156.169 141.06C155.702 140.287 155.469 139.38 155.469 138.34C155.469 137.313 155.702 136.413 156.169 135.64C156.649 134.867 157.296 134.267 158.109 133.84C158.936 133.413 159.856 133.2 160.869 133.2C161.776 133.2 162.589 133.38 163.309 133.74C164.029 134.1 164.602 134.66 165.029 135.42C165.469 136.18 165.689 137.153 165.689 138.34C165.689 139.527 165.469 140.507 165.029 141.28C164.602 142.04 164.029 142.607 163.309 142.98C162.589 143.34 161.776 143.52 160.869 143.52ZM161.249 141.4C161.876 141.4 162.436 141.273 162.929 141.02C163.422 140.753 163.802 140.393 164.069 139.94C164.349 139.473 164.489 138.94 164.489 138.34C164.489 137.74 164.349 137.213 164.069 136.76C163.802 136.293 163.422 135.94 162.929 135.7C162.436 135.447 161.876 135.32 161.249 135.32C160.622 135.32 160.056 135.447 159.549 135.7C159.056 135.94 158.669 136.293 158.389 136.76C158.122 137.213 157.989 137.74 157.989 138.34C157.989 138.94 158.122 139.473 158.389 139.94C158.669 140.393 159.056 140.753 159.549 141.02C160.056 141.273 160.622 141.4 161.249 141.4Z" fill="black"/>
<path d="M138.229 183L134.557 174.6H136.249L139.525 182.196H138.553L141.865 174.6H143.425L139.765 183H138.229ZM146.699 183.084C145.987 183.084 145.363 182.944 144.827 182.664C144.299 182.376 143.887 181.984 143.591 181.488C143.303 180.992 143.159 180.428 143.159 179.796C143.159 179.156 143.299 178.592 143.579 178.104C143.867 177.608 144.259 177.22 144.755 176.94C145.259 176.66 145.831 176.52 146.471 176.52C147.095 176.52 147.651 176.656 148.139 176.928C148.627 177.2 149.011 177.584 149.291 178.08C149.571 178.576 149.711 179.16 149.711 179.832C149.711 179.896 149.707 179.968 149.699 180.048C149.699 180.128 149.695 180.204 149.687 180.276H144.347V179.28H148.895L148.307 179.592C148.315 179.224 148.239 178.9 148.079 178.62C147.919 178.34 147.699 178.12 147.419 177.96C147.147 177.8 146.831 177.72 146.471 177.72C146.103 177.72 145.779 177.8 145.499 177.96C145.227 178.12 145.011 178.344 144.851 178.632C144.699 178.912 144.623 179.244 144.623 179.628V179.868C144.623 180.252 144.711 180.592 144.887 180.888C145.063 181.184 145.311 181.412 145.631 181.572C145.951 181.732 146.319 181.812 146.735 181.812C147.095 181.812 147.419 181.756 147.707 181.644C147.995 181.532 148.251 181.356 148.475 181.116L149.279 182.04C148.991 182.376 148.627 182.636 148.187 182.82C147.755 182.996 147.259 183.084 146.699 183.084ZM154.788 176.52C155.3 176.52 155.756 176.62 156.156 176.82C156.564 177.02 156.884 177.328 157.116 177.744C157.348 178.152 157.464 178.68 157.464 179.328V183H155.964V179.52C155.964 178.952 155.828 178.528 155.556 178.248C155.292 177.968 154.92 177.828 154.44 177.828C154.088 177.828 153.776 177.9 153.504 178.044C153.232 178.188 153.02 178.404 152.868 178.692C152.724 178.972 152.652 179.328 152.652 179.76V183H151.152V176.592H152.58V178.32L152.328 177.792C152.552 177.384 152.876 177.072 153.3 176.856C153.732 176.632 154.228 176.52 154.788 176.52Z" fill="black"/>
<path d="M138.229 209L134.557 200.6H136.249L139.525 208.196H138.553L141.865 200.6H143.425L139.765 209H138.229ZM146.699 209.084C145.987 209.084 145.363 208.944 144.827 208.664C144.299 208.376 143.887 207.984 143.591 207.488C143.303 206.992 143.159 206.428 143.159 205.796C143.159 205.156 143.299 204.592 143.579 204.104C143.867 203.608 144.259 203.22 144.755 202.94C145.259 202.66 145.831 202.52 146.471 202.52C147.095 202.52 147.651 202.656 148.139 202.928C148.627 203.2 149.011 203.584 149.291 204.08C149.571 204.576 149.711 205.16 149.711 205.832C149.711 205.896 149.707 205.968 149.699 206.048C149.699 206.128 149.695 206.204 149.687 206.276H144.347V205.28H148.895L148.307 205.592C148.315 205.224 148.239 204.9 148.079 204.62C147.919 204.34 147.699 204.12 147.419 203.96C147.147 203.8 146.831 203.72 146.471 203.72C146.103 203.72 145.779 203.8 145.499 203.96C145.227 204.12 145.011 204.344 144.851 204.632C144.699 204.912 144.623 205.244 144.623 205.628V205.868C144.623 206.252 144.711 206.592 144.887 206.888C145.063 207.184 145.311 207.412 145.631 207.572C145.951 207.732 146.319 207.812 146.735 207.812C147.095 207.812 147.419 207.756 147.707 207.644C147.995 207.532 148.251 207.356 148.475 207.116L149.279 208.04C148.991 208.376 148.627 208.636 148.187 208.82C147.755 208.996 147.259 209.084 146.699 209.084ZM154.788 202.52C155.3 202.52 155.756 202.62 156.156 202.82C156.564 203.02 156.884 203.328 157.116 203.744C157.348 204.152 157.464 204.68 157.464 205.328V209H155.964V205.52C155.964 204.952 155.828 204.528 155.556 204.248C155.292 203.968 154.92 203.828 154.44 203.828C154.088 203.828 153.776 203.9 153.504 204.044C153.232 204.188 153.02 204.404 152.868 204.692C152.724 204.972 152.652 205.328 152.652 205.76V209H151.152V202.592H152.58V204.32L152.328 203.792C152.552 203.384 152.876 203.072 153.3 202.856C153.732 202.632 154.228 202.52 154.788 202.52Z" fill="black"/>
<path d="M138.229 235L134.557 226.6H136.249L139.525 234.196H138.553L141.865 226.6H143.425L139.765 235H138.229ZM146.699 235.084C145.987 235.084 145.363 234.944 144.827 234.664C144.299 234.376 143.887 233.984 143.591 233.488C143.303 232.992 143.159 232.428 143.159 231.796C143.159 231.156 143.299 230.592 143.579 230.104C143.867 229.608 144.259 229.22 144.755 228.94C145.259 228.66 145.831 228.52 146.471 228.52C147.095 228.52 147.651 228.656 148.139 228.928C148.627 229.2 149.011 229.584 149.291 230.08C149.571 230.576 149.711 231.16 149.711 231.832C149.711 231.896 149.707 231.968 149.699 232.048C149.699 232.128 149.695 232.204 149.687 232.276H144.347V231.28H148.895L148.307 231.592C148.315 231.224 148.239 230.9 148.079 230.62C147.919 230.34 147.699 230.12 147.419 229.96C147.147 229.8 146.831 229.72 146.471 229.72C146.103 229.72 145.779 229.8 145.499 229.96C145.227 230.12 145.011 230.344 144.851 230.632C144.699 230.912 144.623 231.244 144.623 231.628V231.868C144.623 232.252 144.711 232.592 144.887 232.888C145.063 233.184 145.311 233.412 145.631 233.572C145.951 233.732 146.319 233.812 146.735 233.812C147.095 233.812 147.419 233.756 147.707 233.644C147.995 233.532 148.251 233.356 148.475 233.116L149.279 234.04C148.991 234.376 148.627 234.636 148.187 234.82C147.755 234.996 147.259 235.084 146.699 235.084ZM154.788 228.52C155.3 228.52 155.756 228.62 156.156 228.82C156.564 229.02 156.884 229.328 157.116 229.744C157.348 230.152 157.464 230.68 157.464 231.328V235H155.964V231.52C155.964 230.952 155.828 230.528 155.556 230.248C155.292 229.968 154.92 229.828 154.44 229.828C154.088 229.828 153.776 229.9 153.504 230.044C153.232 230.188 153.02 230.404 152.868 230.692C152.724 230.972 152.652 231.328 152.652 231.76V235H151.152V228.592H152.58V230.32L152.328 229.792C152.552 229.384 152.876 229.072 153.3 228.856C153.732 228.632 154.228 228.52 154.788 228.52Z" fill="black"/>
<path d="M138.229 261L134.557 252.6H136.249L139.525 260.196H138.553L141.865 252.6H143.425L139.765 261H138.229ZM146.699 261.084C145.987 261.084 145.363 260.944 144.827 260.664C144.299 260.376 143.887 259.984 143.591 259.488C143.303 258.992 143.159 258.428 143.159 257.796C143.159 257.156 143.299 256.592 143.579 256.104C143.867 255.608 144.259 255.22 144.755 254.94C145.259 254.66 145.831 254.52 146.471 254.52C147.095 254.52 147.651 254.656 148.139 254.928C148.627 255.2 149.011 255.584 149.291 256.08C149.571 256.576 149.711 257.16 149.711 257.832C149.711 257.896 149.707 257.968 149.699 258.048C149.699 258.128 149.695 258.204 149.687 258.276H144.347V257.28H148.895L148.307 257.592C148.315 257.224 148.239 256.9 148.079 256.62C147.919 256.34 147.699 256.12 147.419 255.96C147.147 255.8 146.831 255.72 146.471 255.72C146.103 255.72 145.779 255.8 145.499 255.96C145.227 256.12 145.011 256.344 144.851 256.632C144.699 256.912 144.623 257.244 144.623 257.628V257.868C144.623 258.252 144.711 258.592 144.887 258.888C145.063 259.184 145.311 259.412 145.631 259.572C145.951 259.732 146.319 259.812 146.735 259.812C147.095 259.812 147.419 259.756 147.707 259.644C147.995 259.532 148.251 259.356 148.475 259.116L149.279 260.04C148.991 260.376 148.627 260.636 148.187 260.82C147.755 260.996 147.259 261.084 146.699 261.084ZM154.788 254.52C155.3 254.52 155.756 254.62 156.156 254.82C156.564 255.02 156.884 255.328 157.116 255.744C157.348 256.152 157.464 256.68 157.464 257.328V261H155.964V257.52C155.964 256.952 155.828 256.528 155.556 256.248C155.292 255.968 154.92 255.828 154.44 255.828C154.088 255.828 153.776 255.9 153.504 256.044C153.232 256.188 153.02 256.404 152.868 256.692C152.724 256.972 152.652 257.328 152.652 257.76V261H151.152V254.592H152.58V256.32L152.328 255.792C152.552 255.384 152.876 255.072 153.3 254.856C153.732 254.632 154.228 254.52 154.788 254.52Z" fill="black"/>
<path d="M33.6228 50V24L35.9028 26.36H27.7028V22H38.8228V50H33.6228Z" fill="#D3BE03"/>
<path d="M24.7594 101V97.52L35.8794 86.96C36.8127 86.08 37.506 85.3067 37.9594 84.64C38.4127 83.9733 38.706 83.36 38.8394 82.8C38.9994 82.2133 39.0794 81.6667 39.0794 81.16C39.0794 79.88 38.6394 78.8933 37.7594 78.2C36.8794 77.48 35.586 77.12 33.8794 77.12C32.5194 77.12 31.2794 77.36 30.1594 77.84C29.066 78.32 28.1194 79.0533 27.3194 80.04L23.6794 77.24C24.7727 75.7733 26.2394 74.64 28.0794 73.84C29.946 73.0133 32.026 72.6 34.3194 72.6C36.346 72.6 38.106 72.9333 39.5994 73.6C41.1194 74.24 42.2794 75.16 43.0794 76.36C43.906 77.56 44.3194 78.9867 44.3194 80.64C44.3194 81.5467 44.1994 82.4533 43.9594 83.36C43.7194 84.24 43.266 85.1733 42.5994 86.16C41.9327 87.1467 40.9594 88.2533 39.6794 89.48L30.1194 98.56L29.0394 96.6H45.3994V101H24.7594Z" fill="#8C8C8C"/>
<path d="M33.9194 152.4C31.946 152.4 30.0127 152.12 28.1194 151.56C26.2527 150.973 24.6794 150.173 23.3994 149.16L25.6394 145.12C26.6527 145.947 27.8794 146.613 29.3194 147.12C30.7594 147.627 32.266 147.88 33.8394 147.88C35.706 147.88 37.1594 147.507 38.1994 146.76C39.2394 145.987 39.7594 144.947 39.7594 143.64C39.7594 142.36 39.2794 141.347 38.3194 140.6C37.3594 139.853 35.8127 139.48 33.6794 139.48H31.1194V135.92L39.1194 126.4L39.7994 128.36H24.7594V124H43.8394V127.48L35.8394 137L33.1194 135.4H34.6794C38.1194 135.4 40.6927 136.173 42.3994 137.72C44.1327 139.24 44.9994 141.2 44.9994 143.6C44.9994 145.173 44.5994 146.627 43.7994 147.96C42.9994 149.293 41.7727 150.373 40.1194 151.2C38.4927 152 36.426 152.4 33.9194 152.4Z" fill="#CD7F32"/>
<path d="M28.8929 182.82V181.02L35.7929 172H38.5729L31.7729 181.02L30.4729 180.62H41.5729V182.82H28.8929ZM36.5729 186V182.82L36.6529 180.62V177.8H39.0929V186H36.5729Z" fill="black"/>
<path d="M34.6802 212.2C33.6935 212.2 32.7268 212.06 31.7802 211.78C30.8468 211.487 30.0602 211.087 29.4202 210.58L30.5202 208.56C31.0268 208.973 31.6402 209.307 32.3602 209.56C33.0935 209.813 33.8535 209.94 34.6402 209.94C35.5602 209.94 36.2802 209.747 36.8002 209.36C37.3335 208.973 37.6002 208.453 37.6002 207.8C37.6002 207.36 37.4868 206.973 37.2602 206.64C37.0468 206.307 36.6602 206.053 36.1002 205.88C35.5535 205.707 34.8002 205.62 33.8402 205.62H30.4602L31.1802 198H39.4002V200.18H32.1402L33.5002 198.94L32.9602 204.64L31.6002 203.42H34.4202C35.8068 203.42 36.9202 203.607 37.7602 203.98C38.6135 204.34 39.2335 204.847 39.6202 205.5C40.0202 206.14 40.2202 206.873 40.2202 207.7C40.2202 208.513 40.0202 209.26 39.6202 209.94C39.2202 210.62 38.6068 211.167 37.7802 211.58C36.9668 211.993 35.9335 212.2 34.6802 212.2Z" fill="black"/>
<path d="M35.1705 238.2C33.9038 238.2 32.8171 237.933 31.9105 237.4C31.0038 236.853 30.3105 236.067 29.8305 235.04C29.3505 234.013 29.1105 232.747 29.1105 231.24C29.1105 229.64 29.3971 228.287 29.9705 227.18C30.5571 226.073 31.3638 225.233 32.3905 224.66C33.4305 224.087 34.6238 223.8 35.9705 223.8C36.6771 223.8 37.3505 223.873 37.9905 224.02C38.6438 224.167 39.1971 224.393 39.6505 224.7L38.6905 226.66C38.3038 226.407 37.8838 226.233 37.4305 226.14C36.9905 226.033 36.5238 225.98 36.0305 225.98C34.7105 225.98 33.6638 226.387 32.8905 227.2C32.1171 228.013 31.7305 229.213 31.7305 230.8C31.7305 231.053 31.7371 231.353 31.7505 231.7C31.7638 232.033 31.8105 232.373 31.8905 232.72L31.0905 231.84C31.3305 231.293 31.6571 230.84 32.0705 230.48C32.4971 230.107 32.9971 229.827 33.5705 229.64C34.1571 229.453 34.7905 229.36 35.4705 229.36C36.3905 229.36 37.2105 229.54 37.9305 229.9C38.6505 230.247 39.2238 230.747 39.6505 231.4C40.0771 232.04 40.2905 232.793 40.2905 233.66C40.2905 234.58 40.0638 235.38 39.6105 236.06C39.1571 236.74 38.5438 237.267 37.7705 237.64C36.9971 238.013 36.1305 238.2 35.1705 238.2ZM35.0305 236.16C35.5638 236.16 36.0371 236.067 36.4505 235.88C36.8638 235.68 37.1838 235.4 37.4105 235.04C37.6505 234.68 37.7705 234.26 37.7705 233.78C37.7705 233.047 37.5171 232.467 37.0105 232.04C36.5038 231.613 35.8238 231.4 34.9705 231.4C34.4105 231.4 33.9171 231.507 33.4905 231.72C33.0771 231.92 32.7438 232.2 32.4905 232.56C32.2505 232.92 32.1305 233.333 32.1305 233.8C32.1305 234.227 32.2438 234.62 32.4705 234.98C32.6971 235.34 33.0238 235.627 33.4505 235.84C33.8905 236.053 34.4171 236.16 35.0305 236.16Z" fill="black"/>
<path d="M32.636 264L38.416 251.04L39.096 252.2H31.156L32.396 250.94V254.58H29.976V250H40.856V251.74L35.416 264H32.636Z" fill="black"/>
<rect x="3" y="112" width="295" height="46" fill="#A0D911" fill-opacity="0.32"/>
<rect x="4" y="4" width="293" height="266" rx="14" stroke="#3E7A00" stroke-width="8"/>
</svg>
