<svg width="74" height="74" viewBox="0 0 74 74" fill="none" xmlns="http://www.w3.org/2000/svg">
<g filter="url(#filter0_d_68_214)">
<rect x="7" y="5" width="60" height="60" rx="30" fill="#7E76A1"/>
<rect x="7" y="5" width="60" height="60" rx="30" stroke="white" stroke-width="5"/>
<path d="M26.5 42.0001V36.1667C26.5 35.5479 26.7458 34.9544 27.1834 34.5168C27.621 34.0792 28.2145 33.8334 28.8333 33.8334V30.3334C28.8333 29.0957 29.325 27.9088 30.2002 27.0336C31.0753 26.1584 32.2623 25.6667 33.5 25.6667H40.5C41.7377 25.6667 42.9247 26.1584 43.7998 27.0336C44.675 27.9088 45.1667 29.0957 45.1667 30.3334V33.8334C45.7855 33.8334 46.379 34.0792 46.8166 34.5168C47.2542 34.9544 47.5 35.5479 47.5 36.1667V42.0001C47.5 42.6189 47.2542 43.2124 46.8166 43.65C46.379 44.0876 45.7855 44.3334 45.1667 44.3334C44.5478 44.3334 43.9543 44.0876 43.5168 43.65C43.0792 43.2124 42.8333 42.6189 42.8333 42.0001H31.1667C31.1667 42.6189 30.9208 43.2124 30.4832 43.65C30.0457 44.0876 29.4522 44.3334 28.8333 44.3334C28.2145 44.3334 27.621 44.0876 27.1834 43.65C26.7458 43.2124 26.5 42.6189 26.5 42.0001ZM33.5 28.0001C32.8812 28.0001 32.2877 28.2459 31.8501 28.6835C31.4125 29.1211 31.1667 29.7146 31.1667 30.3334V33.8334H42.8333V30.3334C42.8333 29.7146 42.5875 29.1211 42.1499 28.6835C41.7123 28.2459 41.1188 28.0001 40.5 28.0001H33.5ZM30 38.5001C30.3094 38.5001 30.6062 38.3772 30.825 38.1584C31.0437 37.9396 31.1667 37.6428 31.1667 37.3334C31.1667 37.024 31.0437 36.7272 30.825 36.5085C30.6062 36.2897 30.3094 36.1667 30 36.1667C29.6906 36.1667 29.3938 36.2897 29.175 36.5085C28.9562 36.7272 28.8333 37.024 28.8333 37.3334C28.8333 37.6428 28.9562 37.9396 29.175 38.1584C29.3938 38.3772 29.6906 38.5001 30 38.5001ZM44 38.5001C44.3094 38.5001 44.6062 38.3772 44.825 38.1584C45.0438 37.9396 45.1667 37.6428 45.1667 37.3334C45.1667 37.024 45.0438 36.7272 44.825 36.5085C44.6062 36.2897 44.3094 36.1667 44 36.1667C43.6906 36.1667 43.3938 36.2897 43.175 36.5085C42.9562 36.7272 42.8333 37.024 42.8333 37.3334C42.8333 37.6428 42.9562 37.9396 43.175 38.1584C43.3938 38.3772 43.6906 38.5001 44 38.5001Z" fill="white"/>
</g>
<defs>
<filter id="filter0_d_68_214" x="0.5" y="0.5" width="73" height="73" filterUnits="userSpaceOnUse" color-interpolation-filters="sRGB">
<feFlood flood-opacity="0" result="BackgroundImageFix"/>
<feColorMatrix in="SourceAlpha" type="matrix" values="0 0 0 0 0 0 0 0 0 0 0 0 0 0 0 0 0 0 127 0" result="hardAlpha"/>
<feOffset dy="2"/>
<feGaussianBlur stdDeviation="2"/>
<feComposite in2="hardAlpha" operator="out"/>
<feColorMatrix type="matrix" values="0 0 0 0 0 0 0 0 0 0 0 0 0 0 0 0 0 0 0.25 0"/>
<feBlend mode="normal" in2="BackgroundImageFix" result="effect1_dropShadow_68_214"/>
<feBlend mode="normal" in="SourceGraphic" in2="effect1_dropShadow_68_214" result="shape"/>
</filter>
</defs>
</svg>
